<svg width="16" height="16" viewBox="0 0 16 16" fill="none" xmlns="http://www.w3.org/2000/svg">
    <path fill-rule="evenodd" clip-rule="evenodd" d="M9.77301 0.666184C8.75788 -0.222061 7.24212 -0.222061 6.22699 0.666184L5.98295 0.879717C5.54452 1.26334 4.99349 1.49442 4.41256 1.53826L4.048 1.56578C2.72081 1.66594 1.66594 2.72081 1.56578 4.048L1.53826 4.41256C1.49442 4.99349 1.26334 5.54452 0.879717 5.98295L0.666184 6.22698C-0.222061 7.24212 -0.222061 8.75788 0.666184 9.77301L0.879717 10.0171C1.26334 10.4555 1.49442 11.0065 1.53826 11.5874L1.56578 11.952C1.66594 13.2792 2.72081 14.3341 4.048 14.4342L4.41256 14.4617C4.99349 14.5056 5.54452 14.7367 5.98295 15.1203L6.22698 15.3338C7.24212 16.2221 8.75788 16.2221 9.77301 15.3338L10.0171 15.1203C10.4555 14.7367 11.0065 14.5056 11.5874 14.4617L11.952 14.4342C13.2792 14.3341 14.3341 13.2792 14.4342 11.952L14.4617 11.5874C14.5056 11.0065 14.7367 10.4555 15.1203 10.0171L15.3338 9.77301C16.2221 8.75788 16.2221 7.24212 15.3338 6.22699L15.1203 5.98295C14.7367 5.54452 14.5056 4.99349 14.4617 4.41256L14.4342 4.048C14.3341 2.72081 13.2792 1.66594 11.952 1.56578L11.5874 1.53826C11.0065 1.49442 10.4555 1.26334 10.0171 0.879717L9.77301 0.666184ZM4.76959 4.7952C4.6388 4.67098 4.42922 4.67098 4.29844 4.7952C4.16766 4.91943 4.16766 5.13975 4.29844 5.26398L5.30804 6.20152C4.17621 6.99296 3.42346 8.24647 3.42346 9.68382C3.42346 9.69476 3.42337 9.70835 3.42328 9.72294C3.42308 9.75564 3.42285 9.79339 3.42346 9.81776H12.5771C12.5777 9.79339 12.5775 9.75564 12.5773 9.72294C12.5772 9.70835 12.5771 9.69476 12.5771 9.68382C12.5771 8.24647 11.8244 6.99296 10.6925 6.20152L11.7021 5.26398C11.8329 5.13975 11.8329 4.91943 11.7021 4.7952C11.5714 4.67098 11.3618 4.67098 11.231 4.7952L10.1541 5.86668C9.51832 5.54893 8.7686 5.39791 8.00029 5.39791C7.23198 5.39791 6.48226 5.54893 5.84649 5.86668L4.76959 4.7952ZM6.65416 7.94267C6.65416 8.17691 6.42963 8.34448 6.18302 8.34448C5.93641 8.34448 5.77918 8.17691 5.77918 7.94267C5.77918 7.70843 5.93641 7.4739 6.18302 7.4739C6.42963 7.4739 6.65416 7.70843 6.65416 7.94267ZM9.81756 8.34448C10.0642 8.34448 10.2214 8.17691 10.2214 7.94267C10.2214 7.70843 10.0642 7.4739 9.81756 7.4739C9.57095 7.4739 9.34642 7.70843 9.34642 7.94267C9.34642 8.17691 9.57095 8.34448 9.81756 8.34448Z" fill="#7FBA00"/>
</svg>
