<svg width="16" height="16" viewBox="0 0 16 16" fill="none" xmlns="http://www.w3.org/2000/svg">
    <g mask="url(#mask0_663_1316)">
        <path d="M3.81736 14.2723L10.1462 7.90798L3.92159 1.64844C3.67327 1.80763 3.5 2.08247 3.5 2.41597V13.5822C3.5 13.8668 3.62612 14.1086 3.81736 14.2723Z" fill="url(#paint0_linear_663_1316)"/>
        <path d="M15.0265 7.20013C15.6609 7.54924 15.6609 8.45061 15.0265 8.79972L12.4668 10.2082L10.1484 7.90876L12.3486 5.72656L15.0265 7.20013Z" fill="url(#paint1_linear_663_1316)"/>
        <path d="M12.4675 10.2057L10.1491 7.90625L3.82031 14.2706C4.09862 14.5089 4.51488 14.5819 4.88111 14.3803L12.4675 10.2057Z" fill="url(#paint2_linear_663_1316)"/>
        <path d="M3.92188 1.64932L10.1464 7.90885L12.3466 5.72664L4.8784 1.61708C4.5555 1.43939 4.19372 1.47506 3.92188 1.64932Z" fill="url(#paint3_linear_663_1316)"/>
    </g>
    <defs>
        <linearGradient id="paint0_linear_663_1316" x1="7.83846" y1="5.43601" x2="3.53553" y2="9.77433" gradientUnits="userSpaceOnUse">
            <stop stop-color="#00C3FF"/>
            <stop offset="1" stop-color="#1BE2FA"/>
        </linearGradient>
        <linearGradient id="paint1_linear_663_1316" x1="10.1484" y1="7.90878" x2="15.8715" y2="7.90878" gradientUnits="userSpaceOnUse">
            <stop stop-color="#FFCE00"/>
            <stop offset="1" stop-color="#FFEA00"/>
        </linearGradient>
        <linearGradient id="paint2_linear_663_1316" x1="3.68759" y1="15.0475" x2="11.3004" y2="8.94416" gradientUnits="userSpaceOnUse">
            <stop stop-color="#DE2453"/>
            <stop offset="1" stop-color="#FE3944"/>
        </linearGradient>
        <linearGradient id="paint3_linear_663_1316" x1="4.05411" y1="0.950684" x2="11.299" y2="6.86823" gradientUnits="userSpaceOnUse">
            <stop stop-color="#11D574"/>
            <stop offset="1" stop-color="#01F176"/>
        </linearGradient>
    </defs>
</svg>
