<svg width="1440" height="156" viewBox="0 0 1440 156" fill="none" xmlns="http://www.w3.org/2000/svg"><path d="M1424.84 4.633 1413.51.842m11.33 3.791h-33.57m33.57 0 11.7 3.917m-11.7-3.917h23.77m-35.1-3.791 4.12.001 4.08.008 4 .024 3.86.045 3.7.074 3.5.11 3.24.155 3.01.197 2.59.272 2.35.315.65.11v2.48m-35.1-3.791h-33.02m10.78 3.791L1380.49.842m10.78 3.791h-33.56m33.56 0 2.76.967 8.39 2.951m34.12-.001-34.12.001m34.12-.001 12.07 4.04m-12.07-4.04h12.07m0-3.917V8.55M1380.49.842h-33.03m0 0h-33.02m33.02 0 10.25 3.791M1314.44.842h-33.03m33.03 0 9.71 3.791m33.56 0h-33.56m33.56 0 10.59 3.918M1281.41.842h-33.02m33.02 0 9.17 3.791m33.57 0h-33.57m33.57 0 10.03 3.917M1248.39.842h-33.02m33.02 0 8.63 3.791m33.56 0h-33.56m33.56 0 9.48 3.917M1215.37.842h-33.03m33.03 0 8.09 3.791m33.56 0h-33.56m33.56 0 2.2.968 1.11.486 5.61 2.464m-83.6-7.709h-33.02m33.02 0 7.55 3.791m33.57 0h-33.57m33.57 0 2.06.968 6.29 2.95h34.13M1149.32.842h-33.03m33.03 0 7.01 3.791m33.56 0h-33.56m33.56 0 7.8 3.917m-81.4-7.708h-33.02m33.02 0 6.47 3.791m33.57 0h-33.57m33.57 0 1.79.967.9.486 4.55 2.464m-80.3-7.708h-33.03m33.03 0 5.93 3.791m33.56 0h-33.56m33.56 0 6.69 3.917M1050.24.842h-33.02m33.02 0 5.4 3.791m33.56 0h-33.56m33.56 0 1.51.968.77.486 3.85 2.464M1017.22.842h-33.025m33.025 0 1.2.937 1.81 1.417 1.84 1.437m33.57 0h-33.57m33.57 0 .68.482.69.485 4.2 2.95M984.195.842h-33.024m33.024 0 1.065.937 3.249 2.854m33.561 0h-33.561m33.561 0 1.24.967.62.486 3.16 2.464M951.171.842h-33.025m33.025 0 3.775 3.791m33.563 0h-33.563m33.563 0 4.458 3.917M918.146.842h-33.024m33.024 0 1.201 1.407 1.217 1.424.408.48.411.48m33.563 0h-33.563m33.563 0 .481.483.482.485.485.486 2.453 2.464M885.122.842h-33.025m33.025 0 1.001 1.407.336.473.338.474 1.022 1.437m33.564 0h-33.564m33.564 0 .825.967.415.486.417.49 1.686 1.974M852.097.842h-33.024m33.024 0 2.158 3.791m33.564 0h-33.564m33.564 0 .687.967 1.394 1.958.351.495.354.497M819.073.842l.2.467.199.47 1.014 2.374.205.48M819.073.842h-33.024m68.206 3.791h-33.564m33.564 0 .275.483.275.485.277.486 1.401 2.464m-35.792-3.918h-33.563m33.563 0 1.671 3.918M786.049.842h-33.025m33.025 0 1.079 3.791M753.024.842H720m33.024 0 .201 1.407.339 2.384m33.564 0h-33.564m33.564 0 .137.482.137.485.139.486.701 2.464M720 .842h-33.024m33.024 0v3.791m33.564 0H720m33.564 0 .557 3.917M686.976.842h-33.025m33.025 0-.2 1.407-.34 2.384m33.564 0h-33.564m33.564 0v3.918M653.951.842h-33.024m33.024 0-1.078 3.791m33.563 0h-33.563m33.563 0-.557 3.917M620.927.842l-.2.467-.199.47-1.014 2.374-.205.48m1.618-3.791h-33.024m64.97 3.791h-33.564m33.564 0-.138.482-.137.485-.139.486-.419 1.472-.282.992m-32.449-3.917h-33.564m33.564 0-1.671 3.917M587.903.842h-33.025m33.025 0-1.884 3.31-.274.481M554.878.842h-33.024m33.024 0-1.001 1.407-.336.473-.677.951-.341.48-.342.48m33.564 0h-33.564m33.564 0-.275.483-.275.485-.277.486-1.402 2.463M521.854.842h-33.025m33.025 0-1.201 1.407-1.217 1.424-.408.48-.411.48m33.564 0h-33.564m33.564 0-.687.968-1.394 1.958-.705.992M488.829.842h-33.024m33.024 0-3.775 3.791m33.563 0h-33.563m33.563 0-.825.967-.415.486-.417.49-1.686 1.974M455.805.842H422.78m33.025 0-1.065.937-3.249 2.854m33.563 0-.481.482-3.42 3.435m3.901-3.917h-33.563M422.78.842h-33.024m33.024 0-4.853 3.791m33.564 0h-33.564m33.564 0-.55.483-3.908 3.434M389.756.842h-33.024m33.024 0-5.393 3.791m33.564 0h-33.564m33.564 0-1.239.968-.623.486-3.153 2.463M356.732.842h-33.025m33.025 0-5.933 3.791m33.564 0h-33.564m33.564 0-.687.482-.689.485-4.196 2.95M323.707.842h-33.024m33.024 0-6.471 3.791m33.563 0h-33.563m33.563 0-1.513.967-.762.486-3.855 2.464M290.683.842h-33.024m33.024 0-7.011 3.791m33.564 0h-33.564m33.564 0-.825.483-5.863 3.434M257.659.842h-33.024m33.024 0-7.551 3.791m33.564 0h-33.564m33.564 0-1.789.968-.9.486-4.556 2.464M224.635.842H191.61m33.025 0-8.091 3.791m33.564 0h-33.564m33.564 0-7.801 3.917M191.61.842h-33.024m33.024 0-8.629 3.791m33.563 0h-33.563m33.563 0-2.063.967-6.295 2.95m-49.6-7.708h-33.024m33.024 0-9.169 3.791m33.564 0h-33.564m33.564 0-2.201.968-1.109.486-5.606 2.464M125.562.842H92.537m33.025 0-9.709 3.791m33.564 0h-33.564m33.564 0-9.473 3.918M92.537.842H59.513m33.024 0L82.29 4.633m33.563 0H82.29m33.563 0-10.03 3.917M59.513.842H26.488m33.025 0L48.726 4.633m33.564 0H48.726m33.564 0L71.702 8.55M26.488.842l-4.12.001-4.08.008-3.993.024-3.868.045-3.701.074-3.494.11-3.244.155-3.012.197-2.584.272-2.353.315-.647.11v2.48M26.488.842 15.162 4.633m33.564 0H15.162m33.564 0-2.752.967-8.394 2.95M-8.608 4.633h23.77m-23.77 0V8.55m80.31 0h34.121m-34.121 0H37.58m68.243 0-10.37 4.049m10.37-4.049 34.121.001m68.242-.001h34.121m-34.121 0-34.121.001m68.242-.001 34.12.001m68.242-.001-6.336 4.049m6.336-4.049h34.122m-34.122 0h-34.121m68.243 0-3.578 2.515-2.184 1.534m5.762-4.049h34.121m68.241 0-4.032 4.049m4.032-4.049h34.121m-34.121 0h-34.12m68.241 0-2.146 2.515-1.31 1.534m3.456-4.049 34.121.001m68.243-.001-.428.999-.646 1.516-.436 1.02-.219.514m1.729-4.049h34.12m-34.12 0h-34.122m68.242 0-.428 1.502-.578 2.033-.146.514m1.152-4.049h34.121m68.242 0 .071.499.071.5.072.503.071.505.073.508.218 1.534m-.576-4.049h34.121m-34.121 0L720 8.551m68.242-.001.428 1.502.578 2.033.146.514m-1.152-4.049 34.12.001m68.243-.001.711.999 2.169 3.05m-2.88-4.049h34.121m-34.121 0-34.122.001m68.243-.001 2.146 2.515 1.31 1.534m-3.456-4.049 34.121.001m68.243-.001 4.53 3.535.65.514m-5.18-4.049h34.12m-34.12 0h-34.123m68.243 0 3.58 2.515 2.18 1.534m-5.76-4.049 34.12.001m68.24-.001 7.49 4.049m-7.49-4.049h34.12m-34.12 0h-34.12m68.24 0 8.07 4.049m-8.07-4.049 34.12-.001 8.64 4.05m59.61-4.049 9.79 4.049m-9.79-4.049-34.12.001m34.12-.001h34.12m0 0 10.37 4.049m-10.37-4.049 34.12.001M-8.725 40.088h.117m0 0h33.665m-33.665 0v5.196m0-5.196v-1.829m33.665 1.829 12.814-5.003m-12.814 5.003-13.305 5.196m13.305-5.196h38.608m-25.794-5.003 12.35-4.823m-12.35 4.823h37.895M11.752 45.284l-13.825 5.398m13.825-5.398h39.347m-39.347 0h-20.36m72.273-5.196 12.102-5.002m-12.102 5.002-12.566 5.196m12.566-5.196h38.608m-64.401-5.003H-.025m0 0 13.036-4.823M-.025 35.085h-8.583m8.583 0-8.583 3.174m0-3.174v3.174m0-3.174v-4.822m46.326-9.143h35.91m-35.91 0 11.717-4.334M37.718 21.12H1.81m71.818 0 11.101-4.334M73.628 21.12l-11.494 4.49m11.494-4.49h35.911m-60.104-4.334h35.294m-35.294 0 11.323-4.188m-11.323 4.188H14.142M1.81 21.12l12.333-4.333M1.81 21.12H-8.608m10.418 0-10.418 3.661M37.72 21.12l-12.134 4.49h36.547m22.596-8.824h35.292m-35.292 0 10.725-4.188m-34.696 0 34.695.001m-34.695-.001 10.944-4.05m-57.56 8.238 11.918-4.188m-11.918 4.188h-22.75m128.629 0-10.483 4.335m10.483-4.335 35.293.001m-35.293-.001 10.129-4.187M-8.977 119.068h.37m0 0h30.782m-30.782 0-.001-8.295m.001 8.295-.001 8.709m30.783-8.709 16.524-8.295m-16.524 8.295L4.83 127.777m17.345-8.709H72.02m-33.321-8.295 15.761-7.913m-15.761 7.913h48.665m-48.665 0H-8.608M4.83 127.777h51.084m-51.084 0H-8.608m13.438 0-13.438 6.746m80.628-15.455 15.344-8.295m-15.344 8.295-16.106 8.709m16.106-8.709h49.845M54.46 102.86H6.921m47.539 0 15.046-7.554M54.46 102.86h47.538m-14.634 7.913 14.634-7.913m-14.634 7.913h48.665m-144.637 0v-.636m15.529-7.277 16.122-7.554M6.921 102.86H-8.608m15.529 0-15.529 7.277m31.651-14.831 15.409-7.221m-15.409 7.221h46.463m-46.463 0h-31.65m-.001 7.554v7.277m0-7.277.001-7.554m47.059-7.221h45.436m-45.436 0 14.741-6.908m-14.741 6.908H-6.985m90.873 0 13.76-6.908m-13.76 6.908-14.382 7.221m14.382-7.221h45.437m-76.132-6.908h44.455m-44.455 0H8.74m44.453 0 14.119-6.615M-6.985 88.085 8.74 81.177m-15.725 6.908h-1.623m1.623 0-1.623.713m106.256-7.621 13.176-6.615m-13.176 6.615H142.1M69.506 95.306h46.464m13.355-7.221 12.775-6.908m-12.775 6.908-13.355 7.221m13.355-7.221h45.436M8.74 81.177l15.059-6.615M8.74 81.177H-8.608m75.92-6.615h43.512m-43.512 0H23.799m43.513 0 13.532-6.341m29.98 6.341 12.631-6.341m-12.631 6.341h43.513M142.1 81.177l12.237-6.615M142.1 81.177h44.455m-92.729-19.04h41.745m-41.745 0 12.466-5.841m-12.466 5.841H52.082m54.21-5.841h40.915m-40.915 0H65.379m40.913 0 11.981-5.614M52.082 62.137H10.339m41.743 0 13.297-5.841m-13.297 5.841-13.847 6.084m55.592-6.084-12.983 6.084m0 0h42.611m-42.611 0H38.235m97.337-6.084 11.635-5.841m-11.635 5.841-12.117 6.084m12.117-6.084h41.745m-30.11-5.841 11.181-5.614m-11.181 5.614h40.914m-64.666 11.925h42.61m11.252-6.084 10.804-5.841m-10.804 5.841-11.252 6.084m11.252-6.084h41.745M65.379 56.296H24.467m40.912 0 12.778-5.614m40.116 0h40.115m-40.115 0H78.157m40.116 0 11.52-5.398m28.595 5.398 10.752-5.398m-10.752 5.398h40.115m-10.382 5.614 10.382-5.614m-10.382 5.614h40.914m-88.154-16.208h38.608m-38.608 0 10.678-5.003m-10.678 5.003h-38.608m38.608 0-11.088 5.196m49.696-5.196 9.966-5.003m-9.966 5.003-10.349 5.196m10.349-5.196h38.607m-66.537-5.003h37.896m-37.896 0h-37.896m37.896 0 10.293-4.823m-59.579 9.826 11.39-5.003m-11.39 5.003-11.827 5.195 39.347.001m0 0h39.347m20.315-10.199 9.606-4.823m-9.606 4.823h37.896M169.14 45.284h39.347m9.609-5.196 9.255-5.003m-9.255 5.003-9.609 5.196m9.609-5.196h38.608m-143.041-5.003-37.896.001m37.896-.001 10.979-4.823m37.21 0h37.209m-37.209 0h-37.21m37.21 0 9.925-4.651m27.284 4.651h37.209m-8.919 4.823 8.919-4.823m-8.919 4.823h37.897m-47.982-13.963h-35.91l9.251-4.335m0 0h35.292m-35.292 0 8.938-4.188m-8.938 4.188h-35.293m16.463 8.824 9.579-4.49h-71.818m62.239 4.49-36.548-.001m82.037-4.489 8.633-4.334m-8.633 4.334-8.941 4.49m8.941-4.49h35.91m-27.277-4.334h35.294m-35.294 0 8.343-4.188m-34.697 0h34.696m-34.696 0 8.64-4.05m-8.64 4.05h-34.699m-9.532 4.188-9.868 4.334-10.218 4.489m20.086-8.823 9.532-4.188M16.929 262.896l23.257-16.347m-23.257 16.347-24.904 17.505m24.904-17.505h70.307m-70.307 0H-8.608m48.794-16.347 21.767-15.299m-21.767 15.299h67.981m-67.981 0H-8.608m.633 33.852h72.797m-72.797 0h-.633m.633 0-.633.444m95.844-17.949 20.931-16.347m-20.931 16.347-22.414 17.505m22.414-17.505h70.307m-166.151 0v17.505m0-17.505v-16.347m70.561-15.299 20.417-14.351M61.953 231.25h65.805m-65.805 0H-3.852l22.459-14.351m89.56 29.65 19.591-15.299m-19.591 15.299h67.981m-184.756 0v-12.26m48.322-30.877h61.844m-61.844 0 19.873-12.699m-19.873 12.699-21.107 13.487m21.107-13.487H-8.608m110.166 0 18.066-12.699m-18.066 12.699L82.37 216.899m19.188-13.487h61.844M59.587 190.713h60.037m-60.037 0H-.45m60.037 0 18.746-11.978m-59.726 38.164H82.37m-63.763 0H-8.608m0-13.487v13.487m0-13.487v-7.921m128.232-4.778 17.042-11.978m-17.042 11.978h60.038M82.37 216.899h63.763m17.269-13.487 16.26-12.699m-16.26 12.699-17.269 13.487m17.269-13.487h61.845M-.45 190.713l20.449-11.978M-.45 190.713h-8.158m8.158 0-8.158 4.778m86.941-16.756h58.333m-58.333 0H19.999m58.334 0 17.71-11.316m40.623 11.316 16.1-11.316m-16.1 11.316H195m-15.338 11.978L195 178.735m-15.338 11.978H239.7m-126.898-34.004h55.2m-55.2 0 15.883-10.148m-15.883 10.148h-55.2m55.2 0-16.759 10.71m71.959-10.71 14.439-10.148m-14.439 10.148-15.236 10.71m15.236-10.71h55.2m-94.517-10.148h53.756m-53.756 0H74.929m53.756 0 15.072-9.632m-86.155 19.78H2.403m55.199 0 17.327-10.148m-17.327 10.148-18.282 10.71m56.723 0h56.723m-56.723 0H39.32m143.121-20.858 13.702-9.632m-13.702 9.632h53.755m-83.43 20.858h56.724m13.712-10.71 12.994-10.148m-12.994 10.148-13.712 10.71m13.712-10.71h55.2M74.929 146.561H21.172m53.757 0 16.443-9.632m52.385 0h52.386m-52.386 0H91.372m52.385 0 14.324-9.152m38.062 9.152 13.021-9.152m-13.021 9.152h52.386m-12.333 9.632 12.333-9.632m-12.333 9.632h53.756m-118.243-27.493h49.845m-49.845 0 12.984-8.295m-12.984 8.295h-49.844m49.844 0-13.628 8.709m63.473-8.709 11.803-8.295m-11.803 8.295-12.39 8.709m12.39-8.709h49.845m-86.706-8.295h48.664m-48.664 0h-48.664m48.664 0 12.382-7.913m-75.21 16.208 14.164-8.295m-14.164 8.295-14.868 8.709m51.084 0h51.083m-51.083 0h-51.084m126.36-17.004 11.257-7.913m-11.257 7.913h48.664m-72.857 17.004h51.084m11.151-8.709 10.622-8.295m-10.622 8.295-11.151 8.709m11.151-8.709h49.844m-185.214-8.295 13.508-7.913m47.538 0h47.539m-47.539 0h-47.538m47.538 0 11.823-7.554m35.716 7.554 10.748-7.554m-10.748 7.554h47.539m-10.132 7.913 10.132-7.913m-10.132 7.913h48.664M220.198 88.085h45.436m-45.436 0 10.811-6.908m-10.811 6.908h-45.437m45.437 0-11.3 7.221m56.736-7.221 9.829-6.908m-9.829 6.908-10.272 7.221m10.272-7.221h45.436m-80.061-6.908h44.454m-44.454 0h-44.454m44.454 0 10.353-6.615m-66.601 13.523 11.794-6.908m-11.794 6.908-12.327 7.221m46.464 0h46.464m-46.464 0h-46.464m113.029-14.129 9.412-6.615m-9.412 6.615h44.453m-64.554 14.129h46.464m9.244-7.221 8.846-6.908m-8.846 6.908-9.244 7.221m9.244-7.221h45.438m-169.953-6.908 11.294-6.615m43.513 0h43.513m-43.513 0h-43.513m43.513 0 9.924-6.341m33.589 6.341 9.022-6.341m-9.022 6.341h43.512m-8.471 6.615 8.471-6.615m-8.471 6.615h44.454m-103.564-19.04h41.745m-41.745 0 9.142-5.841m-9.142 5.841h-41.744m41.744 0-9.52 6.084m51.265-6.084 1.058-.743 7.253-5.098m-8.311 5.841-8.654 6.084m8.654-6.084h41.746m-74.349-5.841h40.914m-40.914 0h-40.913m40.913 0 8.785-5.614m-59.671 11.455 9.973-5.841m-9.973 5.841-10.387 6.084m42.611 0h42.611m-42.611 0h-42.611m102.187-11.925 7.986-5.614m-7.986 5.614h40.914m-57.879 11.925h42.609m7.791-6.084 7.479-5.841m-7.479 5.841-7.791 6.084m7.791-6.084h41.744m-157.006-5.841 9.583-5.614m40.115 0h40.115m-40.115 0h-40.115m40.115 0 8.448-5.398m31.667 5.398 6.737-4.735.943-.663m-7.68 5.398h40.116m-7.188 5.614 7.188-5.614m-7.188 5.614h40.914m-97.378-16.208h38.609m-38.609 0 7.832-5.003m-7.832 5.003h-38.608m38.608 0-8.131 5.196m46.74-5.196 7.119-5.003m-7.119 5.003-2.739 1.926-4.654 3.27m7.393-5.196h38.608m-69.385-5.003h37.896m-37.896 0h-37.896m37.896 0 7.547-4.823m-53.987 9.826 7.493-4.389 1.051-.614m-8.544 5.003-8.87 5.195m39.347.001h39.347m-39.347 0-39.347-.001m93.206-10.198 6.861-4.823m-6.861 4.823h37.896m-52.408 10.199h39.347m6.654-5.196 6.407-5.003m-6.407 5.003-1.641 1.28-5.013 3.916m6.654-5.196h38.607m-145.888-5.003 8.233-4.823m37.21 0h37.21m-37.21 0h-37.21m37.21 0 7.279-4.651m29.931 4.651 6.617-4.651m-6.617 4.651h37.21m-6.175 4.823 6.175-4.823m-6.175 4.823h37.896m-55.928-13.963h-35.91l6.784-4.335m0 0h35.294m-35.294 0 6.555-4.188m-6.555 4.188h-35.293m-7.399 4.334h35.908l-7.024 4.49m0 0h36.548m-36.548 0-36.548-.001-7.941 4.652m87.423-9.141 4.646-3.264.762-.537.76-.533m-6.168 4.334-6.386 4.49m6.386-4.49h35.91m-29.742-4.334h35.292m-35.292 0 5.957-4.188m-18.511 13.012 36.548-.001m5.748-4.489 5.55-4.334m-5.55 4.334-5.748 4.489m5.748-4.489h35.91m-94.391-8.522h34.696m-34.696 0h-34.698m-7.15 4.188h-35.293m35.293 0-7.4 4.334m7.4-4.334 7.15-4.188m98.729 4.188h35.293m-35.293 0 5.363-4.188m-34.698 0h34.698M42.403 449.107h96.8m-96.8 0 30.48-30.605m-30.48 30.605L8.909 482.739m33.494-33.632-51.01.001m147.81-.001 26.125-30.605m-26.125 30.605-28.709 33.632m28.709-33.632h96.799M72.883 418.502h92.445m-92.445 0 27.856-27.971m-27.856 27.971h-81.49m17.516 64.237h101.585m-101.585 0-17.516 17.59m17.516-17.59H-8.608m.001-33.631-.001 33.631m.001-33.631v-30.606m173.935 0 23.877-27.971m-23.877 27.971h92.446m-147.28 64.237-31.695 37.129m31.695-37.129h101.585m23.923-33.632 21.772-30.605m-21.772 30.605-23.923 33.632m23.923-33.632h96.8m-232.063-58.576h88.466m-88.466 0H12.273m88.466 0 25.557-25.662M-8.607 418.502v-9.625m197.812-18.346 21.906-25.662m-21.906 25.662h88.466m-19.897 27.971 19.897-27.971m-19.897 27.971h92.445m-200.392-77.261h81.453m-81.453 0 21.736-21.826m-21.736 21.826H68.374m81.453 0-23.531 23.628m104.984-23.628 18.631-21.826m-18.631 21.826-20.169 23.628m20.169-23.628h81.453m-141.17-21.826h78.348m-78.348 0H93.215m78.348 0 20.141-20.223m-123.33 42.049 24.841-21.826m-24.841 21.826-26.893 23.628m26.893-23.628H-8.608m134.904 23.628h84.815m-84.815 0H41.481m208.43-45.454 17.264-20.223m-17.264 20.223h78.349m-117.149 45.454h84.814m16.808-23.628 15.527-21.826m-15.527 21.826-16.808 23.628m16.808-23.628h81.453M93.215 319.415H14.867m78.348 0 23.018-20.223m75.471 0h75.471m-75.471 0h-75.471m75.471 0 18.713-18.791m56.758 18.791 16.04-18.791m-16.04 18.791h75.471m-14.386 20.223 14.386-20.223m-14.386 20.223h78.348m-178.757-56.519h70.306m-70.306 0 16.279-16.347m-16.279 16.347h-70.308m70.308 0-17.434 17.505m87.74-17.505 13.955-16.347m-13.955 16.347-14.942 17.505m14.942-17.505h70.307M244.13 246.549h67.982m-67.982 0h-67.982m67.982 0 15.237-15.299m-101.824 31.646 18.605-16.347m-18.605 16.347-19.924 17.505m72.798 0h72.798m-72.798 0h-72.798m174.493-33.852 13.06-15.299m-13.06 15.299h67.981m-96.878 33.852h72.798m12.451-17.505 11.629-16.347m-11.629 16.347-12.451 17.505m12.451-17.505h70.308m-262.624-16.347 17.415-15.299m65.804 0h65.805m-65.805 0h-65.804m65.804 0 14.292-14.351m51.513 14.351 12.25-14.351m-12.25 14.351h65.805m-10.884 15.299 10.884-15.299m-10.884 15.299h67.982M287.09 203.412h61.845m-61.845 0 12.648-12.699m-12.648 12.699h-61.843m61.843 0-13.431 13.487m75.276-13.487 10.84-12.699m-10.84 12.699-11.513 13.487m11.513-13.487h61.844m-111.041-12.699h60.037m-60.037 0H239.7m60.038 0 11.928-11.978m-86.419 24.677 14.453-12.699m-14.453 12.699-15.351 13.487m63.763 0h63.763m-63.763 0h-63.763m149.879-26.186L370 178.735m-10.225 11.978h60.037m-82.39 26.186h63.763m9.594-13.487 9.033-12.699m-9.033 12.699-9.594 13.487m9.594-13.487h61.844M239.7 190.713l13.633-11.978m58.333 0H370m-58.334 0h-58.333m58.333 0 11.27-11.316M370 178.735l9.66-11.316M370 178.735h58.333m-8.521 11.978 8.521-11.978m-8.521 11.978h60.038m-146.249-34.004h55.201m-55.201 0 10.107-10.148m-10.107 10.148h-55.199m55.199 0-10.665 10.71m65.866-10.71 8.662-10.148m-8.662 10.148-9.142 10.71m9.142-10.71h55.199m-100.293-10.148h53.756m-53.756 0h-53.756m53.756 0 9.592-9.632m-74.898 19.78 11.55-10.148m-11.55 10.148-12.189 10.71m56.723 0h56.724m-56.724 0h-56.723m131.251-20.858 8.222-9.632m-8.222 9.632h53.756m-71.56 20.858h56.723m7.618-10.71 7.219-10.148m-7.219 10.148-7.618 10.71m7.618-10.71h55.2m-209.249-10.148 10.963-9.632m52.385 0h52.386m-52.386 0h-52.385m52.385 0 9.115-9.152m43.271 9.152 7.812-9.152m-7.812 9.152h52.386m-6.852 9.632 6.852-9.632m-6.852 9.632h53.757m-133.889-27.493h49.844m-49.844 0 8.262-8.295m-8.262 8.295h-49.845m49.845 0-8.673 8.709m58.517-8.709 7.082-8.295m-7.082 8.295-7.434 8.709m7.434-8.709h49.845m-91.427-8.295h48.664m-48.664 0h-48.665m48.665 0 7.88-7.913m-65.987 16.208 9.442-8.295m-9.442 8.295-9.911 8.709m51.083 0h51.083m-51.083 0h-51.083m116.682-17.004 6.754-7.913m-6.754 7.913h48.664m-63.18 17.004h51.084m6.195-8.709 5.901-8.295m-5.901 8.295-6.195 8.709m6.195-8.709h49.845m-189.937-8.295 9.006-7.913m47.539 0h47.538m-47.538 0h-47.539m47.539 0 7.523-7.554m40.015 7.554 6.449-7.554m-6.449 7.554h47.539m-5.629 7.913 3.549-4.989 2.08-2.924m-5.629 7.913h48.665M401.944 88.085h45.437m-45.437 0 6.88-6.908m-6.88 6.908h-45.436m45.436 0-7.191 7.221m52.628-7.221 5.896-6.908m-5.896 6.908-6.164 7.221m6.164-7.221h45.436m-83.993-6.908h44.453m-44.453 0H364.37m44.454 0 6.588-6.615m-58.904 13.523 7.862-6.908m-7.862 6.908-8.219 7.221m46.464 0h46.464m-46.464 0h-46.464m104.988-14.129 5.648-6.615m-5.648 6.615h44.454m-56.514 14.129h46.464m5.136-7.221 4.914-6.908m-4.914 6.908-1.263 1.775-3.873 5.446m5.136-7.221h45.436M364.37 81.177l7.529-6.615m43.513 0h43.513m-43.513 0h-43.513m43.513 0 6.315-6.341m37.198 6.341 2.734-3.204 2.679-3.137m-5.413 6.341h43.512m-4.706 6.615 4.706-6.615m-4.706 6.615h44.454m-114.399-19.04h41.745m-41.745 0 5.817-5.841m-5.817 5.841h-41.745m41.745 0-6.059 6.084m47.804-6.084-.638.747-4.555 5.337m5.193-6.084 4.986-5.841m-4.986 5.841h41.745m-77.673-5.841h40.914m-40.914 0H392.69m40.913 0 5.591-5.614m-53.153 11.455 6.649-5.841m-6.649 5.841-6.924 6.084m42.61 0h42.611m-42.611 0h-42.61m85.221 0h42.61m-32.431-11.925 4.792-5.614m-4.792 5.614h40.914m-4.155 5.841 4.155-5.841m-4.155 5.841-4.328 6.084m4.328-6.084h41.745M392.69 56.296l6.389-5.614m40.115 0h40.115m-40.115 0h-40.115m40.115 0 5.376-5.398m34.739 5.398 4.609-5.399m-4.609 5.399h40.115m-3.993 5.614 3.993-5.614m-3.993 5.614h40.914M449.744 40.088h38.608m-38.608 0 4.984-5.003m-4.984 5.003h-38.608m38.608 0-5.174 5.196m43.782-5.196 4.272-5.003m-4.272 5.003-1.643 1.926-1.109 1.299-1.682 1.97m4.434-5.195h38.608m-72.232-5.003h37.896m-37.896 0h-37.896m37.896 0 4.802-4.823m-48.394 9.826 5.696-5.003m-5.696 5.003-5.913 5.195m39.347.001 39.348-.001m-39.348.001-39.347-.001m87.401-10.198 1.562-1.83 1.029-1.206 1.526-1.787m-4.117 4.823h37.896m-46.602 10.198 39.347.001m3.695-5.196.902-1.269 2.658-3.734m-3.56 5.003-.454.639-.457.641-1.382 1.945-.466.653-.936 1.318m3.695-5.196h38.608m-148.736-5.003 5.489-4.823m37.209 0h37.211m-37.211 0h-37.209m37.209 0 3.49-3.505 1.143-1.146m32.578 4.651 2.003-2.347 1.967-2.305m-3.97 4.652h37.21m-3.431 4.823.436-.613.433-.61 1.716-2.412.846-1.188m-3.431 4.823h37.896m-63.874-13.963h-35.909l3.252-3.265 1.065-1.07m0 0h35.293m-35.293 0 4.171-4.188m-4.171 4.188h-35.293m-4.933 4.334h35.909l-3.903 3.92-.567.57m-31.439-4.49 4.933-4.334m-4.933 4.334-5.11 4.489m36.549.001 36.548-.001m-36.548.001-36.549-.001m76.928-4.489 2.788-3.264.457-.537.456-.533m-3.701 4.334-1.899 2.225-1.932 2.264m3.831-4.489h35.91m-32.209-4.334h35.293m-35.293 0 3.575-4.188M500.711 25.61h36.548m3.193-4.489 3.084-4.334m-3.084 4.334-3.193 4.489m3.193-4.489h35.91m-99.241-8.522h34.697m-34.697 0h-34.697m-4.767 4.188 3.591-3.154 1.176-1.034m101.112 4.188h35.292m-35.292 0 2.243-3.154.736-1.034m-34.697 0h34.697M429.601 449.107h96.8m-96.8 0 13.063-30.605m-13.063 30.605h-96.799m96.799 0-14.354 33.632m111.154-33.632 8.709-30.605m-8.709 30.605-9.569 33.632m9.569-33.632h96.8m-180.537-30.605h92.446m-92.446 0h-92.445m92.445 0 11.938-27.971m-121.8 58.576 17.417-30.605m-17.417 30.605-19.14 33.632m101.585 0h101.585m-101.585 0L399.4 519.868m15.847-37.129H313.662m221.448-64.237 7.958-27.971m-7.958 27.971h92.445m-110.723 64.237-10.565 37.129m10.565-37.129h101.583m4.786-33.632 4.354-30.605m-4.354 30.605-4.786 33.632m4.786-33.632H720m-369.781-30.605 15.918-27.971m88.465 0h88.466m-88.466 0h-88.465m88.465 0 10.953-25.662m77.513 25.662 7.302-25.662m-7.302 25.662h88.466m-3.979 27.971 3.979-27.971m-3.979 27.971H720m-244.36-77.261h81.453m-81.453 0 9.316-21.826m-9.316 21.826h-81.454m81.454 0-10.085 23.628m91.538-23.628 6.211-21.826m-6.211 21.826-6.723 23.628m6.723-23.628h81.454m-153.591-21.826h78.348m-78.348 0h-78.348m78.348 0 8.631-20.223m-99.401 42.049 12.422-21.826m-12.422 21.826-13.445 23.628m84.814 0h84.815m-84.815 0h-84.814m182.563-45.454 5.754-20.223m-5.754 20.223h78.348m-91.282 45.454h84.815m3.362-23.628 3.105-21.826m-3.105 21.826-3.362 23.628m3.362-23.628H720m-313.392-21.826 11.509-20.223m75.47 0h75.471m-75.471 0h-75.47m75.47 0 8.02-18.791m67.451 18.791 5.347-18.791m-5.347 18.791h75.471m-2.877 20.223 2.877-20.223m-2.877 20.223H720m-210.921-56.519h70.307m-70.307 0 6.977-16.347m-6.977 16.347h-70.307m70.307 0-7.472 17.505m77.779-17.505 4.651-16.347m-4.651 16.347-4.981 17.505m4.981-17.505h70.307m-133.637-16.347h67.981m-67.981 0h-67.981m67.981 0 6.53-15.299m-83.814 31.646 9.303-16.347m-9.303 16.347-9.962 17.505m72.797 0h72.798m-72.798 0H428.81m155.227-33.852 4.354-15.299m-4.354 15.299h67.982m-77.614 33.852h72.797m2.491-17.505 2.326-16.347m-2.326 16.347-2.491 17.505m2.491-17.505H720m-271.925-16.347 8.706-15.299m65.805 0h65.805m-65.805 0h-65.805m65.805 0 6.125-14.351m59.68 14.351 4.083-14.351m-4.083 14.351h65.804m-2.176 15.299 2.176-15.299m-2.176 15.299H720m-185.532-43.137h61.843m-61.843 0 5.419-12.699m-5.419 12.699h-61.845m61.845 0-5.757 13.487m67.6-13.487 3.614-12.699m-3.614 12.699-3.837 13.487m3.837-13.487h61.845m-118.269-12.699h60.038m-60.038 0H479.85m60.037 0L545 178.735m-72.377 24.677 7.227-12.699m-7.227 12.699-7.675 13.487m63.763 0h63.763m-63.763 0h-63.763m134.977-26.186 3.408-11.978m-3.408 11.978h60.038m-67.489 26.186h63.763m1.919-13.487 1.807-12.699m-1.807 12.699-1.919 13.487m1.919-13.487H720m-240.15-12.699 6.816-11.978m58.334 0h58.333m-58.333 0h-58.334m58.334 0 4.83-11.316m53.503 11.316 3.221-11.316m-3.221 11.316h58.334m-1.704 11.978 1.704-11.978m-1.704 11.978H720m-165.6-34.004h55.201m-55.201 0 4.332-10.148m-4.332 10.148h-55.199m55.199 0-4.57 10.71m59.771-10.71 2.887-10.148m-2.887 10.148-3.047 10.71m3.047-10.71H664.8m-106.068-10.148h53.756m-53.756 0h-53.755m53.755 0 4.111-9.632m-63.642 19.78 5.776-10.148m-5.776 10.148-6.095 10.71m56.724 0h56.724m-56.724 0h-56.724m119.382-20.858 2.741-9.632m-2.741 9.632h53.756m-59.69 20.858h56.722m1.524-10.71 1.444-10.148m-1.444 10.148-1.524 10.71m1.524-10.71H720m-215.023-10.148 5.48-9.632m52.386 0h52.386m-52.386 0h-52.386m52.386 0 3.907-9.152m48.479 9.152 2.604-9.152m-2.604 9.152h52.386m-1.371 9.632 1.371-9.632m-1.371 9.632H720m-149.534-27.493h49.845m-49.845 0 3.541-8.295m-3.541 8.295h-49.844m49.844 0-3.716 8.709m53.561-8.709 2.361-8.295m-2.361 8.295-2.478 8.709m2.478-8.709h49.845m-96.149-8.295h48.665m-48.665 0h-48.664m48.664 0 1.285-3.011 2.092-4.902m-56.762 16.208 4.721-8.295m-4.721 8.295-4.956 8.709m51.084 0h51.083m-51.083 0h-51.084m107.006-17.004 2.251-7.913m-2.251 7.913h48.664m-53.503 17.004h51.083m1.24-8.709 1.18-8.295m-1.18 8.295-1.24 8.709m1.24-8.709H720m-194.657-8.295 4.503-7.913m47.538 0h47.539m-47.539 0h-47.538m47.538 0 3.224-7.554m44.315 7.554 2.149-7.554m-2.149 7.554h47.538m-1.125 7.913 1.125-7.913m-1.125 7.913H720M583.69 88.085h45.437m-45.437 0 2.949-6.908m-2.949 6.908h-45.437m45.437 0-2.298 5.386-.784 1.835m48.519-7.221.747-2.626 1.218-4.282m-1.965 6.908-2.055 7.221m2.055-7.221h45.437m-87.925-6.908.359-.842 2.464-5.773m-2.823 6.615h44.453m-44.453 0h-44.454m-3.932 6.908 3.932-6.908m-3.932 6.908-.503.885-1.528 2.685-2.078 3.651m46.464 0h46.464m-46.464 0h-46.464m96.948-14.129.716-2.514.235-.829.236-.824.696-2.448m-1.883 6.615h44.455m-48.475 14.129h46.464m1.028-7.221.983-6.908m-.983 6.908-1.028 7.221m1.028-7.221H720M589.462 74.562h43.513m-43.513 0H545.95m43.512 0 2.707-6.341m-49.984 12.956 3.765-6.615m87.025 0 .686-2.409.225-.795.894-3.137m-1.805 6.341h43.513m-.941 6.615.119-.842.822-5.773m-.941 6.615H720m-125.235-19.04h41.745m-41.745 0 1.259-2.95.312-.728.308-.725.309-.72.305-.718m-2.493 5.841h-41.744m41.744 0-2.596 6.084m44.341-6.084 1.253-4.403.206-.72.203-.718m-1.662 5.841-1.73 6.084m1.73-6.084h41.745m-80.997-5.841h40.914m-40.914 0h-40.913m40.913 0 1.509-3.535.297-.696.591-1.383m-46.634 11.455 2.505-4.403.819-1.438m-3.324 5.841-1.282 2.252-1.302 2.287-.879 1.545m42.611 0h42.611m-42.611 0h-42.611m88.614-11.925 1.006-3.535.199-.696.196-.693.197-.69m-1.598 5.614h40.914M634.78 68.221h42.609m.866-6.084.831-5.841m-.831 5.841-.32 2.252-.326 2.287-.22 1.545m.866-6.084H720m-163.655-5.841 3.194-5.614m40.116 0h40.115m-40.115 0h-40.116m40.116 0 2.304-5.399m37.811 5.399 1.536-5.399m-1.536 5.399h40.115m-.799 5.614.799-5.614m-.799 5.614H720M604.176 40.088h38.608m-38.608 0 2.136-5.003m-2.136 5.003h-38.608m38.608 0-.547 1.28-.829 1.945-.841 1.97m40.825-5.195-.182.639-1.109 3.896-.187.66m1.478-5.195 1.424-5.003m-1.424 5.003h38.608m-75.08-5.003h37.896m-37.896 0h-37.896m37.896 0 2.059-4.823m-42.803 9.826 2.498-4.389.35-.614m-2.848 5.003-.363.639-.366.641-.366.646-1.861 3.269m39.347 0h39.347m-39.347 0h-39.347m78.694 0 39.347.001m-36.445-10.199.521-1.83.171-.604.172-.602.508-1.787m-1.372 4.823h37.896m-.712 5.003.537-3.77.087-.619.088-.614m-.712 5.003-.739 5.196m.739-5.196H720m-151.584-5.003 2.745-4.823m37.21 0h37.209m-37.209 0h-37.21m37.21 0 .502-1.18.25-.584.249-.583.248-.58.246-.578.246-.574.243-.573m35.225 4.652.168-.591.168-.588.332-1.168.165-.58.165-.578.163-.574.163-.573m-1.324 4.652h37.21m-.686 4.823.686-4.823m-.686 4.823H720m-71.819-13.963h-35.909l1.393-3.265.456-1.07m0 0h35.293m-35.293 0 1.567-3.672.221-.516m-1.788 4.188h-35.293m-2.466 4.334h35.91l-.712 1.665-.238.56-.24.562-.727 1.702m-33.993-4.489 2.466-4.334m-2.466 4.334-2.555 4.489m36.548 0h36.549m-36.549 0h-36.548m74.374-4.489.157-.55.31-1.093.309-1.083.457-1.608m-1.233 4.334-.633 2.225-.16.562-.322 1.132-.162.57m1.277-4.489h35.909m-34.676-4.334.152-.531.15-.53.15-.526.149-.525.444-1.56.147-.516m-1.192 4.188h35.293m-37.803 8.823 36.548.001m.638-4.49.617-4.334m-.617 4.334-.638 4.49m.638-4.49H720m-104.091-8.522h34.697m-34.697 0h-34.697m-2.384 4.188 1.203-2.112.888-1.56.293-.516m69.394 0h34.697m-.596 4.188.075-.531.076-.53.075-.526.37-2.601m-.596 4.188H720m96.799 432.32h96.8m-96.8 0-4.354-30.605m4.354 30.605H720m96.799 0 4.786 33.632m92.014-33.632-8.708-30.605m8.708 30.605 9.569 33.632m-9.569-33.632h96.801m-197.955-30.605h92.446m-92.446 0H720m92.445 0-3.979-27.971M720 449.107v-30.605m0 30.605v33.632m101.585 0h101.583m-101.583 0 5.282 37.129m-5.282-37.129H720m184.891-64.237-7.959-27.971m7.959 27.971h92.445m-74.168 64.237 10.565 37.129m-10.565-37.129h101.582m-14.35-33.632-13.064-30.605m13.064 30.605 14.35 33.632m-14.35-33.632h96.8M720 418.502v-27.971m88.466 0h88.466m-88.466 0H720m88.466 0-3.651-25.662m92.117 25.662-7.302-25.662m7.302 25.662h88.466m11.938 27.971-11.938-27.971m11.938 27.971h92.444m-288.327-77.261h81.454m-81.454 0-3.105-21.826m3.105 21.826H720m81.453 0 3.362 23.628m78.092-23.628-6.211-21.826m6.211 21.826 6.723 23.628m-6.723-23.628h81.453m-166.012-21.826h78.348m-78.348 0H720m78.348 0-2.877-20.223M720 341.241v-21.826m0 21.826v23.628m84.815 0h84.815m-84.815 0H720m156.696-45.454-5.754-20.223m5.754 20.223h78.348m-65.414 45.454h84.815m-10.085-23.628-9.316-21.826m9.316 21.826 10.085 23.628m-10.085-23.628h81.45M720 319.415v-20.223m75.471 0h75.471m-75.471 0H720m75.471 0-2.673-18.791m78.144 18.791-5.347-18.791m5.347 18.791h75.471m8.631 20.223-8.631-20.223m8.631 20.223h78.346m-243.083-56.519h70.307m-70.307 0-2.326-16.347m2.326 16.347H720m70.307 0 2.491 17.505m67.816-17.505-4.651-16.347m4.651 16.347 4.981 17.505m-4.981-17.505h70.307m-142.94-16.347h67.982m-67.982 0H720m67.981 0-2.176-15.299M720 262.896v-16.347m0 16.347v17.505m72.798 0h72.797m-72.797 0H720m135.963-33.852-4.354-15.299m4.354 15.299h67.981m-58.349 33.852h72.798m-7.472-17.505-6.977-16.347m6.977 16.347 7.472 17.505m-7.472-17.505h70.309M720 246.549V231.25m65.805 0h65.804m-65.804 0H720m65.805 0-2.042-14.351m67.846 14.351-4.083-14.351m4.083 14.351h65.805m6.53 15.299-6.53-15.299m6.53 15.299h67.981m-210.081-43.137h61.845m-61.845 0-1.807-12.699m1.807 12.699H720m61.844 0 1.919 13.487m59.926-13.487-3.614-12.699m3.614 12.699 3.837 13.487m-3.837-13.487h61.843m-125.495-12.699h60.038m-60.038 0H720m60.037 0-1.704-11.978M720 203.412v-12.699m0 12.699v13.487m63.763 0h63.763m-63.763 0H720m120.075-26.186-3.408-11.978m3.408 11.978h60.038m-52.587 26.186h63.763m-5.757-13.487-5.419-12.699m5.419 12.699 5.757 13.487m-5.757-13.487h61.845M720 190.713v-11.978m58.333 0h58.334m-58.334 0H720m58.333 0-1.609-11.316m59.943 11.316-3.221-11.316m3.221 11.316H895m5.113 11.978L895 178.735m5.113 11.978h60.037M775.2 156.709h55.199m-55.199 0-1.444-10.148m1.444 10.148H720m55.2 0 1.524 10.71m53.675-10.71-2.887-10.148m2.887 10.148 3.047 10.71m-3.047-10.71H885.6m-111.844-10.148h53.756m-53.756 0H720m53.756 0-1.371-9.632M720 156.709v-10.148m0 10.148v10.71m56.724 0h56.722m-56.722 0H720m107.512-20.858-2.74-9.632m2.74 9.632h53.756m-47.822 20.858h56.724m-4.57-10.71-4.332-10.148m4.332 10.148 4.57 10.71m-4.57-10.71h55.199M720 146.561v-9.632m52.385 0h52.387m-52.387 0H720m52.385 0-1.143-8.033-.158-1.119m53.688 9.152-2.605-9.152m2.605 9.152h52.385m4.111 9.632-4.111-9.632m4.111 9.632h53.755m-165.179-27.493h49.845m-49.845 0-1.18-8.295m1.18 8.295H720m49.844 0 1.24 8.709m48.605-8.709-2.361-8.295m2.361 8.295 2.478 8.709m-2.478-8.709h49.845m-100.87-8.295h48.664m-48.664 0H720m48.664 0-1.125-7.913M720 119.068v-8.295m0 8.295v8.709m51.084 0h51.083m-51.083 0H720m97.328-17.004-2.251-7.913m2.251 7.913h48.665m-43.826 17.004h51.083m-3.716-8.709-3.541-8.295m3.541 8.295 3.716 8.709m-3.716-8.709h49.844M720 110.773v-7.913m47.539 0h47.538m-47.538 0H720m47.539 0-1.075-7.554m48.613 7.554-2.149-7.554m2.149 7.554h47.539m3.377 7.913-.86-2.013-2.517-5.9m3.377 7.913h48.664M765.436 88.085h45.437m-45.437 0-.983-6.908m.983 6.908H720m45.436 0 1.028 7.221m44.409-7.221-1.725-6.06-.24-.848m1.965 6.908 2.055 7.221m-2.055-7.221h45.437m-91.857-6.908-.119-.842-.822-5.773m.941 6.615h44.455m-44.455 0H720m0 6.908v-6.908m0 6.908v7.221m46.464 0h46.464m-46.464 0H720m88.908-14.129-.716-2.514-.235-.829-.236-.824-.696-2.448m1.883 6.615h44.453m-40.433 14.129h46.464m-3.082-7.221-2.949-6.908m2.949 6.908 2.298 5.386.784 1.835m-3.082-7.221h45.437M763.512 74.562h43.513m-43.513 0H720m43.512 0-.229-1.61-.451-3.171-.221-1.56M720 81.177v-6.615m87.025 0-.686-2.409-.225-.795-.893-3.137m1.804 6.341h43.513m2.823 6.615-2.823-6.615m2.823 6.615h44.454m-136.07-19.04h41.745m-41.745 0-.831-5.841m.831 5.841H720m41.745 0 .32 2.252.109.758.107.763.219 1.536.111.775m40.879-6.084-1.253-4.403-.41-1.438m1.663 5.841 1.731 6.084m-1.731-6.084h41.745m-84.321-5.841h40.913m-40.913 0H720m40.914 0-.799-5.614M720 62.137v-5.841m0 5.841v6.084m42.611 0h42.61m-42.61 0H720m81.827-11.925-1.005-3.535-.199-.696-.196-.693-.197-.69m1.597 5.614h40.915m-37.521 11.925h42.61m-2.596-6.084-1.571-3.678-.308-.726-.309-.72-.305-.717m2.493 5.841 2.266 5.309.33.775m-2.596-6.084h41.744M720 56.296v-5.614m40.115 0h40.115m-40.115 0H720m40.115 0-.768-5.398m40.883 5.398-1.536-5.399m1.536 5.399h40.115m2.397 5.614-1.21-2.835-.299-.7-.297-.696-.591-1.383m2.397 5.614h40.913M758.608 40.088h38.608m-38.608 0-.712-5.003m.712 5.003H720m38.608 0 .739 5.196m37.869-5.196.182.639 1.109 3.896.187.66m-1.478-5.195-1.424-5.003m1.424 5.003h38.608m-77.928-5.003h37.896m-37.896 0H720m37.896 0-.686-4.823M720 40.088v-5.003m0 5.003v5.195m39.347.001 39.347-.001m-39.347.001L720 45.283m78.694 0h39.347m-42.249-10.198-.521-1.83-.171-.604-.172-.602-.508-1.787m1.372 4.823h37.896m2.136 5.003-2.136-5.003m2.136 5.003.547 1.28.829 1.945.841 1.97m-2.217-5.195h38.608M720 35.085v-4.822m37.21-.001h37.21m-37.21 0-37.21.001m37.21-.001-.662-4.651m37.872 4.651-.168-.591-.5-1.756-.165-.58-.165-.578-.163-.574-.163-.573m1.324 4.652h37.21m2.058 4.823-2.058-4.823m2.058 4.823h37.896m-79.765-13.963H755.91l-.617-4.335m0 0-.075-.531-.076-.53-.075-.526-.37-2.601m.596 4.188h35.292m-35.292 0H720m0 4.334h35.91l.638 4.49M720 21.121v-4.334m0 4.334v4.489m36.548.001 36.548-.001m-36.548.001L720 25.61m71.819-4.489-.157-.55-.311-1.093-.154-.543-.307-1.078-.152-.537-.153-.533m1.234 4.334.633 2.225.16.562.322 1.132.162.57m-1.277-4.489h35.909m-37.143-4.334h35.294m-35.294 0-.301-1.06-.15-.527-.149-.525-.444-1.56-.147-.516m3.702 13.011 36.549.001m-1.917-4.49-1.393-3.264-.456-1.07m1.849 4.334 1.19 2.787.727 1.703m-1.917-4.49h35.91m-108.941-8.522h34.697m-34.697 0H720m0 4.188v-4.188m105.879 4.188h35.293m-35.293 0-1.347-3.154-.441-1.034m-34.697 0h34.697M1204 449.107h96.8m-96.8 0-21.77-30.605m21.77 30.605h-96.8m96.8 0 23.92 33.632m72.88-33.632-26.13-30.605m26.13 30.605 28.71 33.632m-28.71-33.632h96.8m-215.37-30.605h92.44m-92.44 0h-92.45m92.45 0-19.9-27.971m-55.13 58.576-17.42-30.605m17.42 30.605 19.14 33.632m101.58 0h101.59m-101.59 0 26.41 37.129m-26.41-37.129h-101.58m148.33-64.237-23.87-27.971m23.87 27.971h92.45m-37.61 64.237 31.69 37.129m-31.69-37.129h101.58m-33.49-33.632-30.48-30.605m30.48 30.605 33.49 33.632m-33.49-33.632h51.01m-358.83-30.605-15.92-27.971m88.47 0h88.47m-88.47 0h-88.47m88.47 0-18.26-25.662m106.73 25.662-21.91-25.662m21.91 25.662h88.46m27.86 27.971-27.86-27.971m27.86 27.971h81.49m-321.34-77.261h81.45m-81.45 0-15.53-21.826m15.53 21.826h-81.46m81.46 0 16.8 23.628m64.65-23.628-18.63-21.826m18.63 21.826 20.17 23.628m-20.17-23.628h81.45m-178.43-21.826h78.35m-78.35 0h-78.35m78.35 0-14.39-20.223m-51.54 42.049-12.42-21.826m12.42 21.826 13.45 23.628m84.81 0h84.82m-84.82 0h-84.81m130.83-45.454-17.26-20.223m17.26 20.223h78.35m-39.55 45.454h84.81m-23.53-23.628-21.73-21.826m21.73 21.826 23.53 23.628m-23.53-23.628h81.46m-338.24-21.826-11.51-20.223m75.47 0h75.48m-75.48 0h-75.47m75.47 0-13.36-18.791m88.84 18.791-16.04-18.791m16.04 18.791h75.47m20.14 20.223-20.14-20.223m20.14 20.223h78.34m-275.24-56.519h70.3m-70.3 0-11.63-16.347m11.63 16.347h-70.31m70.31 0 12.45 17.505m57.85-17.505-13.95-16.347m13.95 16.347 14.95 17.505m-14.95-17.505h70.31m-152.24-16.347h67.98m-67.98 0h-67.985m67.985 0-10.89-15.299m-47.79 31.646-9.305-16.347m9.305 16.347 9.96 17.505m72.8 0h72.8m-72.8 0h-72.8m116.7-33.852-13.06-15.299m13.06 15.299h67.98m-39.08 33.852h72.79m-17.43-17.505-16.28-16.347m16.28 16.347 17.43 17.505m-17.43-17.505h70.31m-290.535-16.347-8.706-15.299m65.801 0h65.81m-65.81 0h-65.801m65.801 0-10.2-14.351m76.01 14.351-12.25-14.351m12.25 14.351h65.8m15.24 15.299-15.24-15.299m15.24 15.299h67.98m-234.63-43.137h61.85m-61.85 0-9.03-12.699m9.03 12.699h-61.843m61.843 0 9.6 13.487m52.25-13.487-10.84-12.699m10.84 12.699 11.51 13.487m-11.51-13.487h61.84m-132.72-12.699h60.04m-60.04 0h-60.04m60.04 0-8.52-11.978m-44.293 24.677-7.227-12.699m7.227 12.699 7.675 13.487m63.768 0h63.76m-63.76 0h-63.768m105.178-26.186L1070 178.735m10.23 11.978h60.03m-37.68 26.186h63.76m-13.43-13.487-12.65-12.699m12.65 12.699 13.43 13.487m-13.43-13.487h61.84m-254.6-12.699-6.816-11.978m58.336 0H1070m-58.33 0h-58.336m58.336 0-8.05-11.316m66.38 11.316-9.66-11.316m9.66 11.316h58.33m11.93 11.978-11.93-11.978m11.93 11.978h60.04m-204.301-34.004h55.201m-55.201 0-7.219-10.148m7.219 10.148h-55.2m55.2 0 7.621 10.71m47.58-10.71-8.66-10.148m8.66 10.148 9.14 10.71m-9.14-10.71h55.2m-117.62-10.148h53.76m-53.76 0h-53.757m53.757 0-6.852-9.632m-41.129 19.78-1.473-2.587-4.303-7.561m5.776 10.148 6.095 10.71m56.726 0h56.72m-56.72 0h-56.726m95.646-20.858-8.23-9.632m8.23 9.632h53.75m-35.95 20.858h56.72m-10.66-10.71-10.11-10.148m10.11 10.148 10.66 10.71m-10.66-10.71h55.2m-226.577-10.148-5.48-9.632m52.385 0h52.382m-52.382 0h-52.385m52.385 0-6.51-9.152m58.892 9.152-7.81-9.152m7.81 9.152h52.39m9.59 9.632-9.59-9.632m9.59 9.632h53.76m-180.827-27.493h49.847m-49.847 0-5.902-8.295m5.902 8.295h-49.845m49.845 0 6.195 8.709m43.652-8.709-7.08-8.295m7.08 8.295 7.43 8.709m-7.43-8.709h49.84m-105.589-8.295h48.669m-48.669 0h-48.664m48.664 0-5.628-7.913m-38.315 16.208-4.721-8.295m4.721 8.295 4.956 8.709m51.084 0h51.082m-51.082 0h-51.084m87.656-17.004-6.76-7.913m6.76 7.913h48.66m-34.15 17.004h51.08m-8.67-8.709-8.26-8.295m8.26 8.295 8.67 8.709m-8.67-8.709h49.85m-204.103-8.295-4.503-7.913m47.539 0h47.537m-47.537 0h-47.539m47.539 0-5.374-7.554m52.911 7.554-6.447-7.554m6.447 7.554h47.54m7.88 7.913-7.88-7.913m7.88 7.913h48.66M947.183 88.085l.629.885.634.89 3.873 5.446m-5.136-7.221h45.436m-45.436 0-4.914-6.908m4.914 6.908h-45.436m50.572 7.221h46.464m-46.464 0h-46.463m86.763-7.221-5.896-6.908m5.896 6.908 6.164 7.221m-6.164-7.221h45.441m-95.791-6.908h44.454m-44.454 0h-44.454m44.454 0-4.706-6.615m-35.816 13.523-3.932-6.908m3.932 6.908 2.031 3.57 2.078 3.651m80.867-14.129-5.648-6.615m5.648 6.615h44.457m-32.397 14.129h46.467m-7.19-7.221-6.88-6.908m6.88 6.908 7.19 7.221m-7.19-7.221h45.43m-185.675-6.908-3.765-6.615m43.513 0h43.512m-43.512 0H894.05m43.513 0-1.146-1.61-3.365-4.731m48.023 6.341-2.057-2.409-.677-.795-2.679-3.137m5.413 6.341h43.515m6.59 6.615-6.59-6.615m6.59 6.615h44.45m-146.906-19.04h41.746m-41.746 0-4.155-5.841m4.155 5.841h-41.745m41.745 0 4.328 6.084m37.418-6.084-3.141-3.678-1.846-2.163m4.987 5.841 5.192 6.084m-5.192-6.084h41.74m-87.641-5.841h40.914m-40.914 0h-40.914m40.914 0-3.502-4.924-.491-.69m-33.597 11.455-2.505-4.403-.819-1.438m3.324 5.841 1.282 2.252 2.181 3.832m42.61 0h42.61m-42.61 0h-42.61m75.041-11.925-4.792-5.614m4.792 5.614h40.917m-30.738 11.925h42.608m-6.06-6.084-5.81-5.841m5.81 5.841 6.06 6.084m-6.06-6.084h41.75m-170.305-5.841-3.194-5.614m40.115 0h40.115m-40.115 0h-40.115m40.115 0-3.841-5.398m43.956 5.398-4.609-5.399m4.609 5.399h40.119m5.59 5.614-3.52-3.535-.7-.696-1.37-1.383m5.59 5.614h40.91M913.04 40.088h38.608m-38.608 0-.902-1.269-2.658-3.734m3.56 5.003h-38.608m38.608 0 .911 1.28 1.848 2.598.936 1.318m34.913-5.196-4.272-5.003m4.272 5.003 1.643 1.926 1.109 1.299 1.682 1.97m-4.434-5.195h38.608m-80.776-5.003h37.896m-37.896 0h-37.896m37.896 0-2.585-3.635-.846-1.188m-31.617 9.826-2.498-4.389-.35-.614m2.848 5.003.363.639.366.641.366.646 1.861 3.269m39.347.001 39.347-.001m-39.347.001-39.347-.001m69.988-10.198-1.562-1.83-1.029-1.206-1.526-1.787m4.117 4.823h37.896m-29.19 10.198 39.348.001m-5.174-5.196-4.984-5.003m4.984 5.003 3.21 3.225.652.653 1.312 1.318m-5.174-5.196h38.604m-157.276-5.003-2.745-4.823m37.21 0h37.21m-37.21 0h-37.21m37.21 0-3.308-4.651m40.518 4.651-2.003-2.347-.495-.58-1.472-1.725m3.97 4.652h37.211m4.802 4.823-4.802-4.823m4.802 4.823h37.898m-87.712-13.963h-35.91l-1.94-2.727-1.144-1.608m0 0h35.293m-35.293 0-1.502-2.112-.741-1.042-.369-.518-.367-.516m2.979 4.188h-35.292m2.466 4.334h35.91l3.193 4.49m-39.103-4.49-1.858-3.264-.608-1.07m2.466 4.334 2.555 4.489m36.548.001 36.548-.001m-36.548.001-36.548-.001m69.265-4.489-2.788-3.264-.457-.537-.456-.533m3.701 4.334 1.899 2.225 1.932 2.264m-3.831-4.489h35.909m-39.61-4.334h35.293m-35.293 0-3.575-4.188m11.107 13.011h36.548m-4.47-4.489-3.252-3.264-1.065-1.07m4.317 4.334 3.903 3.92.567.569m-4.47-4.489h35.913m-113.795-8.522h34.697m-34.697 0h-34.697m2.384 4.188-1.203-2.112-.888-1.56-.293-.516m108.262 4.188h35.29m-35.29 0-4.171-4.188m-34.697 0h34.697m462.251 306.816h-78.35m78.35 0-25.89-20.223m25.89 20.223h23.48m-23.48 0 23.48 18.333m-101.83-18.333-23.01-20.223m23.01 20.223 24.85 21.826m27.61-42.049-24.06-18.791m24.06 18.791h-75.47m75.47 0h49.37m0 20.223v-20.223m0 20.223v18.333m0 0v3.493m-95.85-78.345h70.31m-70.31 0-20.93-16.347m20.93 16.347h-70.3m70.3 0 22.42 17.505m47.89-17.505-23.26-16.347m23.26 16.347 24.91 17.505m-24.91-17.505h25.54m-116.78-16.347h67.98m-67.98 0h-67.98m67.98 0-19.59-15.299m-29.78 31.646-18.61-16.347m18.61 16.347 19.92 17.505m72.8 0h72.8m-72.8 0h-72.8m97.43-33.852-21.76-15.299m21.76 15.299h48.8m-.63 33.852h.63m-.63 0 .63.444m0-17.949v-16.347m0 16.347v17.505m-184.76-33.852-17.41-15.299m65.8 0h65.81m-65.81 0h-65.8m65.8 0-18.37-14.351m84.18 14.351-20.42-14.351m20.42 14.351h65.8m4.76 15.299v-12.26m-172.01-30.877h61.84m-61.84 0-16.26-12.699m16.26 12.699h-61.85m61.85 0 17.27 13.487m44.57-13.487-18.06-12.699m18.06 12.699 19.19 13.487m-19.19-13.487h61.85m-139.95-12.699h60.04m-60.04 0h-60.04m60.04 0L1245 178.735m-30.25 24.677-14.45-12.699m14.45 12.699 15.35 13.487m63.77 0h63.76m-63.76 0h-63.77m90.28-26.186-17.05-11.978m17.05 11.978h60.03m-22.78 26.186h63.76m-21.1-13.487-19.88-12.699m19.88 12.699 21.1 13.487m-21.1-13.487h48.32m-248.31-12.699-13.63-11.978m58.33 0h58.33m-58.33 0h-58.33m58.33 0-14.49-11.316m72.82 11.316-16.1-11.316m16.1 11.316h58.34m18.74 11.978-18.74-11.978m18.74 11.978h60.04m-223.65-34.004h55.2m-55.2 0-13-10.148m13 10.148h-55.2m55.2 0 13.71 10.71m41.49-10.71-14.44-10.148m14.44 10.148 15.23 10.71m-15.23-10.71h55.2m-123.4-10.148h53.76m-53.76 0h-53.75m53.75 0-12.33-9.632m-29.87 19.78-11.55-10.148m11.55 10.148 12.19 10.71m56.72 0h56.72m-56.72 0h-56.72m83.77-20.858-13.7-9.632m13.7 9.632h53.76m-24.09 20.858h56.73m-16.76-10.71-15.88-10.148m15.88 10.148 16.76 10.71m-16.76-10.71h55.2m-232.35-10.148-10.96-9.632m52.38 0h52.39m-52.39 0h-52.38m52.38 0-11.72-9.152m64.11 9.152-13.02-9.152m13.02 9.152h52.38m15.08 9.632-15.08-9.632m15.08 9.632h53.75m-196.47-27.493h49.85m-49.85 0-10.62-8.295m10.62 8.295h-49.84m49.84 0 11.15 8.709m38.7-8.709-11.81-8.295m11.81 8.295 12.39 8.709m-12.39-8.709h49.84m-110.31-8.295h48.66m-48.66 0h-48.67m48.67 0-10.13-7.913m-29.09 16.208-9.45-8.295m9.45 8.295 9.91 8.709m51.08 0h51.09m-51.09 0h-51.08m77.97-17.004-11.25-7.913m11.25 7.913h48.67m-24.47 17.004h51.08m-13.63-8.709-12.98-8.295m12.98 8.295 13.63 8.709m-13.63-8.709h49.85m-208.83-8.295-9-7.913m47.54 0h47.54m-47.54 0h-47.54m47.54 0-9.68-7.554m57.22 7.554-10.75-7.554m10.75 7.554h47.53m12.39 7.913-12.39-7.913m12.39 7.913h48.66m-175.04-22.688h45.44m-45.44 0-8.85-6.908m8.85 6.908h-45.44m45.44 0 9.24 7.221m36.2-7.221-9.83-6.908m9.83 6.908 10.27 7.221m-10.27-7.221h45.43m-99.72-6.908h44.46m-44.46 0h-44.45m44.45 0-8.47-6.615m-28.12 13.523-7.86-6.908m7.86 6.908 8.22 7.221m46.46 0h46.47m-46.47 0h-46.46m72.83-14.129-9.41-6.615m9.41 6.615h44.45m-24.35 14.129h46.46m-11.3-7.221-10.81-6.908m10.81 6.908 11.3 7.221m-11.3-7.221h45.44m-189.61-6.908-7.53-6.615m43.51 0h43.52m-43.52 0h-43.51m43.51 0-8.12-6.341m51.64 6.341-9.03-6.341m9.03 6.341h43.51m10.35 6.615-10.35-6.615m10.35 6.615h44.45m-157.74-19.04h41.75m-41.75 0-7.48-5.841m7.48 5.841h-41.74m41.74 0 7.79 6.084m33.96-6.084-8.31-5.841m8.31 5.841 8.65 6.084m-8.65-6.084h41.74m-90.97-5.841h40.92m-40.92 0h-40.91m40.91 0-7.18-5.614m-27.08 11.455-6.65-5.841m6.65 5.841 6.92 6.084m42.61 0h42.61m-42.61 0h-42.61m68.26-11.925-7.99-5.614m7.99 5.614h40.91m-23.95 11.925h42.61m-9.52-6.084-9.14-5.841m9.14 5.841 9.52 6.084m-9.52-6.084h41.75m-173.63-5.841-6.39-5.614m40.12 0h40.11m-40.11 0h-40.12m40.12 0-6.92-5.398m47.03 5.398-6.74-4.735-.94-.663m7.68 5.398h40.12m8.78 5.614-8.78-5.614m8.78 5.614h40.92m-143.5-16.208h38.61m-38.61 0-6.41-5.003m6.41 5.003h-38.61m38.61 0 1.64 1.28.83.646 4.18 3.27m31.96-5.196-7.12-5.003m7.12 5.003 7.39 5.196m-7.39-5.196h38.61m-83.63-5.003h37.9m-37.9 0h-37.89m37.89 0-6.17-4.823m-26.03 9.826-5.69-5.003m5.69 5.003 5.92 5.195m39.34.001h39.35m-39.35 0-39.34-.001m64.18-10.198-6.86-4.823m6.86 4.823h37.9m-23.39 10.199h39.35m-8.13-5.196-7.83-5.003m7.83 5.003 8.13 5.196m-8.13-5.196h38.61m-160.13-5.003-5.49-4.823m37.21 0h37.21m-37.21 0h-37.21m37.21 0-5.96-4.651m43.17 4.651-6.62-4.651m6.62 4.651h37.21m7.55 4.823-7.55-4.823m7.55 4.823h37.89m-95.65-13.963h-35.91l-5.55-4.335m0 0h35.29m-35.29 0-4.71-3.672-.66-.516m5.37 4.188h-35.3m4.94 4.334h35.91l5.74 4.49m-41.65-4.49-4.94-4.334m4.94 4.334 5.1 4.489m36.55.001h36.55m-36.55 0-36.55-.001m66.72-4.489-4.65-3.264-.76-.537-.76-.533m6.17 4.334 6.38 4.49m-6.38-4.49h35.9m-42.07-4.334h35.29m-35.29 0-5.96-4.188m18.51 13.012 36.55-.001m-7.03-4.489-6.78-4.334m6.78 4.334 7.03 4.489m-7.03-4.489h35.91m-118.64-8.522h34.7m-34.7 0h-34.694m4.764 4.188-3.588-3.154-1.176-1.034m110.644 4.188h35.29m-35.29 0-6.55-4.188m-34.7 0h34.7m335.93 144.11-18.77-10.148m18.77 10.148h-55.2m55.2 0 11.01 5.953m-11.01-5.953h11.01m-29.78-10.148h-53.76m53.76 0-17.82-9.632m17.82 9.632h29.78m-66.21 10.148-17.33-10.148m17.33 10.148 18.28 10.71m47.93-4.757v-5.953m0 5.953v4.757m0-10.71v-10.148m-83.54 0-16.44-9.632m52.38 0-16.92-9.152m16.92 9.152h-52.38m52.38 0h47.6m0 9.632v-9.632m-80.63-17.861h49.84m-49.84 0-15.34-8.295m15.34 8.295h-49.84m49.84 0 16.11 8.709m33.73-8.709-16.52-8.295m16.52 8.295 17.35 8.709m-17.35-8.709h30.79m-95.97-8.295h48.66m-48.66 0h-48.67m48.67 0L1338 102.86m-19.86 16.208-14.17-8.295m14.17 8.295 14.86 8.709m51.09 0h51.08m-51.08 0H1333m68.3-17.004-15.76-7.913m15.76 7.913h47.31m-13.44 17.004 13.44 6.746m-13.44-6.746h13.44m0-8.709h.37m-.37 0v-8.295m0 8.295v8.709m-144.64-17.004-13.51-7.913m47.54 0h47.54m-47.54 0h-47.54m47.54 0-13.97-7.554m61.51 7.554-15.05-7.554m15.05 7.554h47.54m15.53 7.913v-.636m-137.93-22.052h45.43m-45.43 0-12.78-6.908m12.78 6.908h-45.44m45.44 0 13.35 7.221m32.08-7.221-13.76-6.908m13.76 6.908 14.38 7.221m-14.38-7.221h45.44m-103.65-6.908h44.45m-44.45 0h-44.46m44.46 0-12.24-6.615m-20.42 13.523-11.8-6.908m11.8 6.908 12.33 7.221m46.46 0h46.46m-46.46 0h-46.46m64.78-14.129-13.17-6.615m13.17 6.615h44.46m-16.32 14.129h46.47m-15.41-7.221-14.74-6.908m14.74 6.908 15.41 7.221m-15.41-7.221h45.43m-193.54-6.908-11.29-6.615m43.51 0h43.52m-43.52 0h-43.51m43.51 0-11.73-6.341m55.25 6.341-12.63-6.341m12.63 6.341h43.51m14.12 6.615-14.12-6.615m14.12 6.615h44.45m-168.58-19.04h41.75m-41.75 0-10.8-5.841m10.8 5.841h-41.74m41.74 0 11.25 6.084m30.5-6.084-11.64-5.841m11.64 5.841 12.12 6.084m-12.12-6.084h41.74m-94.29-5.841h40.91m-40.91 0h-40.91m40.91 0-10.38-5.614m-20.56 11.455-9.97-5.841m9.97 5.841 10.38 6.084m42.61 0h42.62m-42.62 0h-42.61m61.47-11.925-11.18-5.614m11.18 5.614h40.92m-17.16 11.925h42.61m-12.99-6.084-12.46-5.841m12.46 5.841 12.99 6.084m-12.99-6.084h41.75m-176.95-5.841-9.59-5.614m40.12 0h40.11m-40.11 0h-40.12m40.12 0-9.99-5.398m50.1 5.398-10.75-5.398m10.75 5.398h40.12m11.98 5.614-11.98-5.614m11.98 5.614h40.91M1221.9 40.088h38.61m-38.61 0-9.25-5.003m9.25 5.003h-38.6m38.6 0 9.61 5.196m29-5.196-9.97-5.003m9.97 5.003 10.35 5.196m-10.35-5.196h38.61m-86.47-5.003h37.89m-37.89 0h-37.9m37.9 0-8.92-4.823m-20.43 9.826-7.5-4.389-1.05-.614m8.55 5.003 8.87 5.195m39.34.001h39.35m-39.35 0-39.34-.001m58.37-10.198-9.6-4.823m9.6 4.823h37.9m-17.58 10.199h39.35m-11.09-5.196-10.68-5.003m10.68 5.003 11.09 5.196m-11.09-5.196h38.61m-162.98-5.003-8.23-4.823m37.21 0h37.21m-37.21 0h-37.21m37.21 0-8.6-4.651m45.81 4.651-9.27-4.651m9.27 4.651h37.21m10.29 4.823-10.29-4.823m10.29 4.823h37.9m-103.61-13.963h-35.91l-8.01-4.335m0 0h35.29m-35.29 0-7.75-4.188m7.75 4.188h-35.3m7.4 4.334h35.91l8.31 4.49m-44.22-4.49-7.4-4.334m7.4 4.334 7.67 4.489m36.55.001h36.54m-36.54 0-36.55-.001m64.15-4.489-8.63-4.334m8.63 4.334 8.94 4.49m-8.94-4.49h35.91m-44.54-4.334h35.29m-35.29 0-8.34-4.188m25.91 13.012 36.55-.001m-9.58-4.489-9.25-4.334m9.25 4.334 9.58 4.489m-9.58-4.489h35.91m-123.49-8.522h34.7m-34.7 0h-34.7m7.15 4.188-7.15-4.188m113.03 4.188h35.3m-35.3 0-8.94-4.188m-34.69 0h34.69m189.21 49.538-14.13-5.841m14.13 5.841h-41.74m41.74 0 14.72 6.084m-14.72-6.084h18.95m-33.08-5.841h-40.91m40.91 0-13.57-5.614m13.57 5.614h33.08m-60.69 5.841-13.3-5.841m13.3 5.841 13.85 6.084m42.61 0h-42.61m42.61 0h4.23m-4.23 0 4.23 1.749m0-7.833v-5.841m0 5.841v6.084m-73.99-11.925-12.78-5.614m40.12 0h40.11m-40.11 0h-40.12m40.12 0-13.06-5.398m59.71 11.012v-3.062m-72.27-13.146h38.6m-38.6 0-12.11-5.003m12.11 5.003h-38.61m38.61 0 12.56 5.196m26.04-5.196-12.81-5.003m12.81 5.003 13.31 5.196m-13.31-5.196h33.67m-84.38-5.003h37.9m-37.9 0h-37.89m37.89 0-11.66-4.823m-14.84 9.826-11.39-5.003m11.39 5.003 11.82 5.196m39.35 0h39.35m-39.35 0h-39.35m52.58-10.199-12.35-4.823m12.35 4.823h37.89m-11.77 10.199 13.82 5.398m-13.82-5.398h20.36m0-5.196h.12m-.12 0v-1.829m0 1.829v5.196m-122.27-10.199-10.98-4.823m37.21 0h37.21m-37.21 0h-37.21m37.21 0-11.25-4.651m48.46 4.651-11.91-4.651m11.91 4.651h37.21m13.03 4.823-13.03-4.823m13.03 4.823 8.59 3.174m-8.59-3.174h8.59m-82.24-13.963h-35.91l-10.48-4.335m0 0h35.29m-35.29 0-10.13-4.188m10.13 4.188h-35.29m9.86 4.334h35.91l10.86 4.49m-46.77-4.49-9.86-4.334m9.86 4.334 10.22 4.489m36.55.001h36.55m-36.55 0-36.55-.001m61.6-4.489-11.1-4.334m11.1 4.334 11.5 4.49m-11.5-4.49h35.91m-47.01-4.334h35.29m-35.29 0-10.72-4.188m33.32 13.012 36.55-.001m-12.14-4.489-11.72-4.334m11.72 4.334 12.14 4.489m-12.14-4.489h35.91m-128.34-8.522h34.7m-34.7 0h-34.7m9.54 4.188-9.54-4.188m115.41 4.188h35.3m-35.3 0-11.32-4.188m-34.69 0h34.69m35.18 13.011 12.57 4.652m-12.57-4.652h34.19m-10.42-4.489-12.33-4.334m12.33 4.334 10.42 3.661m-22.75-7.995-11.92-4.188m11.92 4.188h22.75m-69.37-4.188h34.7m-34.7 0-10.94-4.05m58.69 21.713h21.62m0-4.652v-.828m0 .828v4.652m0-5.48v-7.995m-10.42 4.335h10.42m-34.67-8.523-11.52-4.05m11.52 4.05h34.67m0 4.188v-4.188m0 0h.03l-.03-.009m0 .009v-.009m0 25.669v-3.174m0 0v-4.823m-133.25 0-10.59-4.652m10.59 4.652h-37.21m26.62-4.652h-36.55m173.85 25.072 6.54 2.552m-6.54-2.552h6.54m0-5.398v5.398m0 2.552v-2.552m-86.77 0-12.29-5.398m12.29 5.398h-40.11m27.82-5.398h-39.34m-41.99-19.674 9.93 4.652m-37.7-17.663h34.7m0 0-9.21-4.05m-99.42 21.713-7.94-4.652m7.94 4.652h-37.21m29.27-4.652h-36.55m188.18 19.674 11.52 5.398m-120.35 0-9.21-5.399m9.21 5.399h-40.11m30.9-5.399-39.35.001m206.34 22.937 13.53 6.341m-13.53-6.341h42.61m0 0 14.43 6.341m-43.51 0h43.51m0 0 15.06 6.615m-15.06-6.615h32.41m0-6.341v1.749m0 0v4.592m-17.35 6.615 15.72 6.908m-15.72-6.908h17.35m-206.46-6.615-10.83-6.341m10.83 6.341h-43.51m249.97 0h.23m-.23 0v6.615m-217.29-12.956h-42.61m228.25 27.085 16.12 7.554m-16.12-7.554h31.65m-1.63-7.221 1.63.713m-1.63-.713h1.63m0-6.908v6.908m0 .713.39.172m-.39-.172v-.713m0 .713v6.508m-15.53 7.554h15.53m-15.53 0 15.53 7.277m0-14.831v7.554m0 0v7.277m-158.15-7.277-12.89-7.554m12.89 7.554h-47.54m34.65-7.554h-46.47m217.51 39.217.15.075m-.15-.075v-6.746m0 6.746v2.406M1333 127.777h-51.08m51.08 0 15.63 9.152M1122.03 25.61l7.28 4.652m-27.64-17.663h34.69m-34.69 0-6.34-4.05m41.03 4.05-.87-.514-1.75-1.02-4.29-2.515m0 0-34.12.001m-77.65 21.711-5.3-4.652m5.3 4.652h-37.21m31.91-4.652h-36.543m176.983 19.674 8.45 5.398m-120.35 0-6.14-5.399m6.14 5.399h-40.11m33.97-5.399-39.35.001m193.28 22.937 9.93 6.341m-130.54 0-7.22-6.341m7.22 6.341h-43.51m36.29-6.341h-42.61m212.83 27.085 11.82 7.554m-142.61 0-8.6-7.554m8.6 7.554h-47.54m38.94-7.554h-46.46m236.67 32.471 14.32 9.152m0 0h52.39m-209.54 0-10.42-9.152m10.42 9.152h-52.39m41.97-9.152h-51.09m266.38 39.642 17.71 11.316m-17.71-11.316h56.72m0 0 19.32 11.316m-19.32-11.316h47.93m-86.94 11.316H1420m0 0 20.45 11.978M1420 178.735h28.61m0-11.316v11.316m-8.16 11.978h8.16m-8.16 0 8.16 4.778m-261.94-16.756-12.88-11.316m12.88 11.316h-58.34m320.28 0v11.978m-274.82-23.294h-56.73m304.33 49.48 22.46 14.351m-22.46-14.351h27.22m0-13.487v-7.921m0 7.921v13.487m0-26.186v4.778m-4.76 35.759 4.76 3.039m-4.76-3.039h4.76m0-14.351v14.351m0 3.039v-3.039m-202.17 0-16.34-14.351m16.34 14.351h-65.81m49.47-14.351h-63.76m282.27 63.502v.444m0 0v18.347m-146.23-18.791h-72.8m72.8 0 21.39 18.791M975.837 25.61l1.143 1.147 3.49 3.505m-17.591-17.663h34.697m-34.697 0-4.032-4.05m38.729 4.05-1.746-1.534-2.863-2.515m0 0-34.12.001m-90.008 21.711-.67-1.179-1.976-3.473m2.646 4.652H831.63m34.563-4.652-36.548.001M995.43 45.284l5.38 5.398m-120.349 0-.39-.686-.39-.683-2.293-4.03m3.073 5.399h-40.116m37.043-5.399h-39.347m180.229 22.938 6.32 6.341m-130.54 0-3.608-6.341m3.608 6.341h-43.512m39.904-6.341h-42.611m197.419 27.085 7.52 7.554m-142.616 0-4.298-7.554m4.298 7.554h-47.538m43.24-7.554h-46.464m218.188 32.471 9.12 9.152m-157.157 0-5.209-9.152m5.209 9.152h-52.386m47.177-9.152H873.25m243.81 39.642 11.27 11.316m-174.996 0-6.44-11.316m6.44 11.316H895m51.894-11.316H890.17m276.17 49.48 14.29 14.351m-197.411 0-8.167-14.351m8.167 14.351h-65.805m57.638-14.351h-63.763m318.291 63.502 18.72 18.791m0 0h75.47m-301.89 0-10.69-18.791m10.69 18.791h-75.467m64.777-18.791h-72.797m375.307 84.468 25.56 25.662m-25.56-25.662h84.82m-26.89-23.628 26.89 23.628m-26.89-23.628h76.98m-50.09 23.628 29.21 25.662m-29.21-25.662h50.09m0-23.628v23.628m-109.35 25.662h88.47m0 0h20.88m-20.88 0 20.88 18.346m0-44.008v25.662m0 27.971v-9.625m0 9.625v30.605m-374.75-58.576-14.6-25.662m14.6 25.662h-88.462m463.212 0v18.346m-389.35-44.008h-84.815m456.645 117.87 17.52 17.59m-17.52-17.59h17.52m0-33.632v33.632m-87.41 37.129h-106.87m106.87 0h87.41m0-19.539v-17.59m0 17.59v19.539m-194.28 0h-106.86m301.14 0V520H-8.608v-.132m1156.078 0-21.13-37.129m21.13 37.129H1040.6m85.74-37.129h-101.59M829.645 25.611l.243.572.246.574.246.578.248.58 1.002 2.347m-7.539-17.663-.219-.514-.436-1.02-.432-1.013-.214-.503-.428-1m1.729 4.05h34.697m0 0-2.02-3.55-.285-.5M720 30.263V25.61m0 4.653-37.21-.001M720 25.61l-36.548.001m154.589 19.672 2.304 5.399m-120.345 0v-5.399m0 5.399h-40.115M720 45.283l-39.347.001m167.178 22.937 2.707 6.341m-130.538 0v-6.341m0 6.341h-43.512M720 68.221h-42.611m182.003 27.085 3.224 7.554m-142.616 0v-7.554m0 7.554h-47.539M720 95.306h-46.464m199.714 32.471 3.907 9.152m-157.157 0v-9.152m0 9.152h-52.385M720 127.777h-51.084m221.254 39.642 4.83 11.316m-175 0v-11.316m0 11.316h-58.333M720 167.419h-56.724m248.013 49.48 6.125 14.351m-197.414 0v-14.351m0 14.351h-65.805M720 216.899h-63.763m282.156 63.502 8.02 18.791m-226.413 0v-18.791m0 18.791h-75.471M720 280.401h-72.798m327.243 84.468 10.953 25.662m-265.398 0v-25.662m0 25.662h-88.466M720 364.869h-84.815m389.565 117.87 15.85 37.129m-106.867 0H1040.6m-106.867 0H826.867m0 0H720m0 0v-37.129m0 37.129H613.133M720 482.739H618.415m65.037-457.128-.082.572-.081.574-.083.578-.416 2.927m2.513-17.663H720m-34.697 0 .218-1.534.073-.508.285-2.007M720 12.599v-4.05m-34.121.001L720 8.551M571.161 30.262l.67-1.179 1.976-3.473m-2.646 4.652h-37.21m39.856-4.652h-36.548m143.394 19.674-.768 5.398m-120.346 0 3.073-5.399m-3.073 5.399h-40.115m43.188-5.399-39.347.001m154.124 22.937-.221 1.56-.451 3.171-.229 1.61m-130.538 0 3.608-6.341m-3.608 6.341h-43.513m47.121-6.341h-42.61m166.588 27.085-1.075 7.554m-142.615 0 4.298-7.554m-4.298 7.554h-47.539m51.837-7.554h-46.463m181.235 32.471-1.301 9.152m-157.158 0 5.209-9.152m-5.209 9.152h-52.385m57.594-9.152h-51.084m198.694 39.642-1.609 11.316m-175.001 0 6.44-11.316m-6.44 11.316h-58.333m64.773-11.316h-56.723m219.854 49.48-2.042 14.351m-197.414 0 8.167-14.351m-8.167 14.351h-65.804m73.971-14.351h-63.763m246.017 63.502-2.673 18.791m-226.412 0 10.693-18.791m-10.693 18.791h-75.471m86.164-18.791h-72.797m279.172 84.468-3.651 25.662m-265.397 0 14.604-25.662m-14.604 25.662h-88.466m103.07-25.662h-84.816m322.49 117.87-5.282 37.129m-106.866 0h106.866m-106.866 0H399.4m0 0H292.533m0 0 21.129-37.129m-21.129 37.129H185.667m127.995-37.129H212.079M537.259 25.61l-3.308 4.652m12.564-17.663h34.697m-34.697 0 2.169-3.05.711-1m31.817 4.05.292-.514.581-1.02 1.431-2.515m0 0-34.121.001M422.321 30.262l5.293-4.652m-5.293 4.652h-37.21m42.503-4.652h-36.548m132.199 19.674-3.841 5.398m-120.345 0 5.389-4.735.755-.664m-6.144 5.399h-40.115m46.259-5.399-39.348.001m141.073 22.937-4.511 6.341m-130.538 0 7.218-6.341m-7.218 6.341h-43.512m50.73-6.341h-42.611m151.175 27.085-5.374 7.554m-142.616 0 8.598-7.554m-8.598 7.554h-47.538m56.136-7.554h-46.463m162.756 32.471-6.51 9.152m-157.157 0 10.417-9.152m-10.417 9.152h-52.386m62.803-9.152h-51.084m176.135 39.642-8.05 11.316m-175 0 12.88-11.316m-12.88 11.316H195m71.213-11.316H209.49m191.695 49.48-10.208 14.351m-197.414 0 16.333-14.351m0 0h-63.763m209.88 63.502-13.367 18.791m-226.413 0 21.386-18.791m-21.386 18.791H40.762m96.857-18.791H64.822m231.103 84.468-18.254 25.662m-265.398 0 29.208-25.662m-29.208 25.662h-20.88m20.88 0-20.88 18.346m50.088-44.008H-8.608m220.687 117.87-26.412 37.129m-106.868 0h106.868m-106.868 0H-8.608m0 0 .001-19.539m0 0-.001-17.59M391.066 25.61l-5.955 4.652m22.616-17.663.657-.514 4.528-3.535m-5.185 4.049h34.697m0 0 1.746-1.534 2.863-2.515m-34.121 0h34.121M273.481 30.262H236.27m129.605 15.022-6.911 5.398m-120.346 0 9.216-5.399m-9.216 5.399h-40.115m49.331-5.399-39.347.001m128.019 22.937-8.119 6.341m-130.538 0 10.826-6.341m-10.826 6.341h-43.512m54.338-6.341h-42.61m135.761 27.085-9.673 7.554m-142.616 0 12.897-7.554m-12.897 7.554h-47.539m60.436-7.554H115.97m144.278 32.471-11.719 9.152m-157.157 0 15.625-9.152m-15.625 9.152H38.986m68.011-9.152H55.914m153.576 39.642L195 178.735m-175.001 0 19.321-11.316m-19.321 11.316H-8.608m47.928-11.316H-8.608m154.741 49.48-18.375 14.351m0 0h65.804m-202.17 0h4.757l-4.757 3.039m0-3.039v3.039m0-3.039v-14.351m73.43 63.502-24.06 18.791m-49.37-18.791v.444m0 0v18.347m49.37 0-25.895 20.223m25.895-20.223h-49.37m23.475 20.223H-8.608m23.475 0-23.475 18.333m0-18.333v18.333m0-18.333v-20.223m0 38.556v3.493m0 0v23.628m0 0 .001 25.662m0 0v18.346M208.324 25.61l-9.264 4.652m9.264-4.652h36.549m-36.549 0h-36.548m73.097 0 8.302-4.489m-8.302 4.489-8.603 4.652m8.603-4.652h36.548l7.664-4.489m-35.91 0 8.017-4.334m-8.017 4.334h35.91m-27.893-4.334 7.746-4.188m0 0h-34.697m34.697 0 .949-.514 6.539-3.535m-7.488 4.049h34.697m-69.394 0 8.065-4.05m61.329 4.05.877-.514 6.036-3.535m0 0-34.121.001M124.642 30.262l-37.21.001m121.055 15.021-9.984 5.398m-120.346 0 12.29-5.398H51.099m27.058 5.398H38.042m128.023 17.539-11.728 6.341m-130.538 0 14.436-6.341m-14.436 6.341H-8.608m46.843-6.341h-42.61M115.97 95.306l-13.972 7.554M-8.607 95.306l-.001-6.508m64.522 38.979-16.928 9.152m-47.594-9.152v6.746m0 0-.148.075m.148-.075v2.406m47.594 0-17.814 9.632m17.814-9.632H-8.608m29.78 9.632L2.403 156.709m18.769-10.148H-8.607m11.01 10.148H-8.608m11.011 0-11.011 5.953m.001-16.101-.001 10.148m.001-10.148-.001-9.632m0 19.78v5.953m0 0v4.757m0 0v11.316m0 11.978v4.778m0-4.778v-11.978M62.133 25.61l-11.91 4.652m11.91-4.652h36.548m0 0 10.857-4.489M98.681 25.61l-11.25 4.652m11.25-4.652h36.547m-5.078-13.011H95.453m34.697 0h34.696m-34.696 0 9.793-4.05m-4.715 17.061-10.587 4.652m40.205-17.663 9.218-4.05M87.432 30.263h-74.42m74.42 0-11.665 4.823m-62.755-4.823 12.573-4.652-34.193-.001m21.62 4.653h-21.62m0 0V25.61m0 0v-8.824m59.707 28.498-13.057 5.398m-40.115 0h40.115m-40.115 0-6.535 2.552m6.535-2.552h-6.535m0-5.398v5.398m46.65 0-13.575 5.614m0 0-14.128 5.841m14.128-5.841H-8.608m18.947 5.841-14.714 6.084m14.714-6.084H-8.608m0-5.841v5.841m0-5.841v-3.062m0 0v-2.552m4.233 17.539-4.233 1.749m4.233-1.749h-4.233m0-6.084v6.084m0 1.749v4.592m0-4.592v-1.749m0 12.956v6.908m0-6.908v-6.615m0 0h-.227m.227 13.523v.713m0 0L-9 88.97m.392-72.184V12.6m69.365 0H26.06m0 0 11.52-4.05M26.06 12.6H-8.608M37.58 8.55H3.46M-8.608 12.6l-.03-.001.03-.009m0 .01v-.01M1368.3 8.551h34.12m-545.937 0h-34.121m-648.297 0h-34.121M15.161 4.634 3.46 8.55m0 0-12.068 4.04M3.46 8.55H-8.608m0 4.04V8.55m1457.218 4.04V8.55" stroke="url(#a)" stroke-width="1.012" stroke-miterlimit="10" stroke-linecap="round" stroke-linejoin="round"/><defs><linearGradient id="a" x1="720" y1=".842" x2="720" y2="364.836" gradientUnits="userSpaceOnUse"><stop stop-color="#CED2DF" stop-opacity="0"/><stop offset="1" stop-color="#CED2DF"/></linearGradient></defs></svg>