<svg width="36" height="36" viewBox="0 0 36 36" fill="none" xmlns="http://www.w3.org/2000/svg"><path fill-rule="evenodd" clip-rule="evenodd" d="M24.747 9.013c1.306 0 2.203 0 2.898.058.679.055 1.044.157 1.308.291a3.208 3.208 0 0 1 1.402 1.402c.134.264.236.63.291 1.308.057.696.058 1.592.058 2.898v6.721c0 1.306 0 2.203-.058 2.898-.055.68-.157 1.044-.291 1.308a3.208 3.208 0 0 1-1.402 1.402c-.264.135-.629.236-1.308.292-.695.057-1.592.058-2.898.058h-1.833a1.375 1.375 0 1 0 0 2.75h1.89c1.235 0 2.244 0 3.065-.068.849-.069 1.616-.217 2.332-.582a5.958 5.958 0 0 0 2.604-2.603c.364-.717.513-1.484.582-2.333.067-.82.067-1.83.067-3.064v-6.836c0-1.235 0-2.244-.067-3.065-.07-.849-.218-1.616-.582-2.332A5.957 5.957 0 0 0 30.2 6.913c-.716-.365-1.483-.513-2.332-.583-.82-.067-1.83-.067-3.064-.067H9.163c-2.595 0-4.8 1.66-5.617 3.972a1.375 1.375 0 0 0 2.592.916 3.21 3.21 0 0 1 3.025-2.138h15.583Zm-20.06 8.584c.269-.02.54-.031.815-.031 5.82 0 10.54 4.719 10.54 10.54 0 .274-.01.546-.031.814a1.375 1.375 0 0 0 2.742.21c.025-.339.038-.68.038-1.024 0-7.34-5.95-13.29-13.29-13.29-.343 0-.685.013-1.023.04a1.375 1.375 0 1 0 .21 2.74Zm.815 5.468c-.247 0-.488.018-.724.051a1.375 1.375 0 0 1-.39-2.721 7.79 7.79 0 0 1 8.825 8.825 1.375 1.375 0 1 1-2.722-.391 5.04 5.04 0 0 0-4.989-5.764Zm-2.29 5.04a2.291 2.291 0 1 1 4.581 0 2.291 2.291 0 0 1-4.582 0Z" fill="#2268EF"/></svg>