<svg width="24" height="24" viewBox="0 0 24 24" fill="none" xmlns="http://www.w3.org/2000/svg">
    <g clip-path="url(#clip0_663_1401)">
        <path d="M12 24C18.6274 24 24 18.6274 24 12C24 5.37258 18.6274 0 12 0C5.37258 0 0 5.37258 0 12C0 18.6274 5.37258 24 12 24Z" fill="#F0F0F0"/>
        <path d="M23.2536 16.1759C23.736 14.8759 24 13.4699 24 12.002C24 10.5342 23.736 9.12811 23.2536 7.82812H0.746391C0.264047 9.12811 0 10.5342 0 12.002C0 13.4699 0.264047 14.8759 0.746391 16.1759L12 17.2194L23.2536 16.1759Z" fill="#0052B4"/>
        <path d="M12.0036 23.998C17.1632 23.998 21.5617 20.7415 23.2572 16.1719H0.75C2.44552 20.7415 6.84403 23.998 12.0036 23.998Z" fill="#D80027"/>
    </g>
    <defs>
        <clipPath id="clip0_663_1401">
            <rect width="24" height="24" fill="white"/>
        </clipPath>
    </defs>
</svg>
