<svg width="36" height="36" viewBox="0 0 36 36" fill="none" xmlns="http://www.w3.org/2000/svg"><path fill-rule="evenodd" clip-rule="evenodd" d="M5.687 17.5c0-1.06.139-2.086.4-3.063h5.908a25.864 25.864 0 0 0 0 6.126H6.087c-.261-.977-.4-2.004-.4-3.063Zm6.754 5.688H7.143a11.84 11.84 0 0 0 7.215 5.702 28.59 28.59 0 0 1-1.917-5.703Zm8.2 5.702a11.84 11.84 0 0 0 7.214-5.703h-5.298a28.597 28.597 0 0 1-1.917 5.703Zm-.78-5.703A25.974 25.974 0 0 1 17.5 29.31a25.978 25.978 0 0 1-2.362-6.122h4.724Zm.497-2.625H14.64a23.275 23.275 0 0 1-.204-3.062c0-1.065.075-2.088.204-3.063h5.718a23.293 23.293 0 0 1 0 6.125Zm2.645 0h5.908c.261-.976.4-2.003.4-3.062 0-1.06-.139-2.086-.4-3.063h-5.908a25.843 25.843 0 0 1 0 6.126Zm-.446-8.75h5.298A11.84 11.84 0 0 0 20.64 6.11a28.601 28.601 0 0 1 1.917 5.702Zm-8.2-5.702a11.84 11.84 0 0 0-7.214 5.702h5.298a28.596 28.596 0 0 1 1.917-5.702Zm.78 5.702h4.724A25.972 25.972 0 0 0 17.5 5.69a25.972 25.972 0 0 0-2.362 6.122Zm2.362-8.75C9.525 3.063 3.062 9.527 3.062 17.5s6.463 14.438 14.437 14.438c7.974 0 14.438-6.464 14.438-14.438S25.472 3.062 17.498 3.062Z" fill="#2268EF"/></svg>