<svg width="228" height="40" viewBox="0 0 228 40" fill="none" xmlns="http://www.w3.org/2000/svg">
    <g clip-path="url(#clip0_72_5429)">
        <g filter="url(#filter0_d_72_5429)">
            <path d="M3.8512 7.85085C6.29172 18.3564 11.6086 27.1414 19.2378 34.5723C26.8851 27.1414 32.1839 18.3564 34.6599 7.85085C26.3934 5.28838 18.1631 4.95872 9.91553 6.44098C11.6086 13.0301 14.6495 19.2714 19.2378 25.11C22.1882 21.5774 24.6452 17.4406 26.5208 12.5911C21.6776 11.7123 16.8524 11.7304 12.0091 12.5911" fill="#005FF9"/>
        </g>
    </g>
    <path d="M200.804 30.8953H194.54V8.50085L200.804 30.8953ZM222.079 30.8953H215.784H222.079ZM215.784 23.2993V8.50085H222.079V30.8953H215.784L200.804 16.0665V30.8953H194.54V8.50085H200.804L215.784 23.2993Z" fill="#005FF9"/>
    <path d="M185.385 8.50085H191.801V20.152C191.801 22.3309 191.216 24.2879 190.046 26.023C188.876 27.7581 187.292 29.1098 185.295 30.0782C183.297 31.0466 181.078 31.5308 178.637 31.5308C176.115 31.5308 173.805 31.0466 171.707 30.0782C169.608 29.1098 167.944 27.7681 166.713 26.0533C165.483 24.3182 164.857 22.3612 164.837 20.1823V8.50085H171.344V20.2731C171.344 21.7257 171.727 22.9059 172.494 23.8138C173.28 24.7015 174.229 25.337 175.338 25.7204C176.448 26.1037 177.557 26.2954 178.667 26.2954C179.656 26.2954 180.664 26.1037 181.693 25.7204C182.722 25.337 183.59 24.7015 184.296 23.8138C185.022 22.9059 185.385 21.7257 185.385 20.2731V8.50085Z" fill="#005FF9"/>
    <path d="M155.285 30.8638L149.082 23.631H142.757V30.8638H136.704V8.46936H153.076C154.952 8.46936 156.607 8.78208 158.039 9.40751C159.492 10.0329 160.612 10.9106 161.398 12.0404C162.205 13.15 162.609 14.4412 162.609 15.914V16.0351C162.609 17.9517 162.044 19.5354 160.914 20.7863C159.805 22.0372 158.261 22.8744 156.284 23.2981L162.791 30.8638H155.285ZM156.526 16.0956C156.526 15.1272 156.334 14.421 155.951 13.9772C155.568 13.5333 155.074 13.261 154.468 13.1601C153.863 13.0592 153.006 13.0088 151.896 13.0088C151.412 13.0088 150.998 13.0189 150.655 13.039C149.001 13.0794 146.368 13.0996 142.757 13.0996V19.0008H151.866H151.896C153.006 19.0008 153.863 18.9605 154.468 18.8798C155.074 18.7789 155.568 18.5166 155.951 18.0929C156.334 17.6692 156.526 17.0035 156.526 16.0956Z" fill="#005FF9"/>
    <path d="M112.558 30.8953H106.293V8.50085L112.558 30.8953ZM133.833 30.8953H127.538H133.833ZM127.538 23.2993V8.50085H133.833V30.8953H127.538L112.558 16.0665V30.8953H106.293V8.50085H112.558L127.538 23.2993Z" fill="#005FF9"/>
    <path d="M94.5012 8.50085C96.3775 8.50085 98.0318 8.81357 99.4643 9.439C100.917 10.0644 102.037 10.9421 102.823 12.0719C103.63 13.1815 104.034 14.4727 104.034 15.9455V16.0665C104.034 18.5077 103.247 20.384 101.673 21.6954C100.12 22.9866 97.9108 23.6322 95.0459 23.6322H84.4237V30.8953H78.129V8.50085H94.5012ZM93.5328 19.002C94.6424 19.002 95.4898 18.9617 96.0748 18.881C96.6801 18.7801 97.1845 18.5279 97.588 18.1244C98.0117 17.7007 98.2235 17.0249 98.2235 16.0968C98.2235 15.1486 98.0117 14.4626 97.588 14.0389C97.1845 13.5951 96.67 13.3227 96.0446 13.2218C95.4393 13.121 94.6021 13.0705 93.5328 13.0705H92.4131C91.949 13.0705 91.142 13.0806 89.992 13.1008C88.8622 13.1008 86.996 13.1008 84.3934 13.1008V19.002H93.5025H93.5328Z" fill="#005FF9"/>
    <path d="M58.1668 30.8951L69.9693 8.50061L58.1668 30.8951ZM61.4654 24.6307L69.9693 8.50061H76.4758L64.9759 30.8951H57.8642L46.213 8.50061H53.1734L61.4654 24.6307Z" fill="#196EFF"/>
    <defs>
        <filter id="filter0_d_72_5429" x="1.00552" y="5.55847" width="36.5001" height="36.9753" filterUnits="userSpaceOnUse" color-interpolation-filters="sRGB">
            <feFlood flood-opacity="0" result="BackgroundImageFix"/>
            <feColorMatrix in="SourceAlpha" type="matrix" values="0 0 0 0 0 0 0 0 0 0 0 0 0 0 0 0 0 0 127 0" result="hardAlpha"/>
            <feOffset dy="5.11582"/>
            <feGaussianBlur stdDeviation="1.42284"/>
            <feComposite in2="hardAlpha" operator="out"/>
            <feColorMatrix type="matrix" values="0 0 0 0 0.0980392 0 0 0 0 0.431373 0 0 0 0 1 0 0 0 0.25 0"/>
            <feBlend mode="normal" in2="BackgroundImageFix" result="effect1_dropShadow_72_5429"/>
            <feBlend mode="normal" in="SourceGraphic" in2="effect1_dropShadow_72_5429" result="shape"/>
        </filter>
        <clipPath id="clip0_72_5429">
            <rect width="38.5108" height="38.5108" fill="white" transform="translate(0 0.744629)"/>
        </clipPath>
    </defs>
</svg>
